<?xml version="1.0" encoding="utf-8" standalone="no"?>
<!DOCTYPE svg PUBLIC "-//W3C//DTD SVG 1.1//EN"
  "http://www.w3.org/Graphics/SVG/1.1/DTD/svg11.dtd">
<!-- Created with matplotlib (http://matplotlib.org/) -->
<svg height="320.204688pt" version="1.1" viewBox="0 0 1113.89375 320.204688" width="1113.89375pt" xmlns="http://www.w3.org/2000/svg" xmlns:xlink="http://www.w3.org/1999/xlink">
 <defs>
  <style type="text/css">
*{stroke-linecap:butt;stroke-linejoin:round;}
  </style>
 </defs>
 <g id="figure_1">
  <g id="patch_1">
   <path d="M 0 320.204688 
L 1113.89375 320.204688 
L 1113.89375 0 
L 0 0 
z
" style="fill:#ffffff;"/>
  </g>
  <g id="axes_1">
   <g id="patch_2">
    <path d="M 46.59375 296.807813 
L 358.417279 296.807813 
L 358.417279 19.607813 
L 46.59375 19.607813 
z
" style="fill:#ffffff;"/>
   </g>
   <g id="patch_3">
    <path clip-path="url(#p5255d356c8)" d="M 60.767547 296.807813 
L 94.117657 296.807813 
L 94.117657 32.807813 
L 60.767547 32.807813 
z
" style="fill:#ffa500;opacity:0.8;stroke:#000000;stroke-linejoin:miter;"/>
   </g>
   <g id="patch_4">
    <path clip-path="url(#p5255d356c8)" d="M 144.142822 296.807813 
L 177.492932 296.807813 
L 177.492932 32.807813 
L 144.142822 32.807813 
z
" style="fill:#ff0000;opacity:0.8;stroke:#000000;stroke-linejoin:miter;"/>
   </g>
   <g id="patch_5">
    <path clip-path="url(#p5255d356c8)" d="M 227.518097 296.807813 
L 260.868207 296.807813 
L 260.868207 263.807813 
L 227.518097 263.807813 
z
" style="fill:#008000;opacity:0.8;stroke:#000000;stroke-linejoin:miter;"/>
   </g>
   <g id="patch_6">
    <path clip-path="url(#p5255d356c8)" d="M 310.893373 296.807813 
L 344.243483 296.807813 
L 344.243483 263.807813 
L 310.893373 263.807813 
z
" style="fill:#0000ff;opacity:0.8;stroke:#000000;stroke-linejoin:miter;"/>
   </g>
   <g id="matplotlib.axis_1">
    <g id="xtick_1">
     <g id="line2d_1">
      <defs>
       <path d="M 0 0 
L 0 3.5 
" id="m96d3b991e1" style="stroke:#000000;stroke-width:0.8;"/>
      </defs>
      <g>
       <use style="stroke:#000000;stroke-width:0.8;" x="77.442602" xlink:href="#m96d3b991e1" y="296.807813"/>
      </g>
     </g>
     <g id="text_1">
      <!-- 无限制 -->
      <defs>
       <path d="M 44.140625 45.3125 
Q 45.3125 59.765625 45.703125 71.484375 
L 24.609375 71.484375 
Q 19.53125 71.484375 15.234375 70.3125 
L 11.71875 73.828125 
L 74.609375 73.828125 
L 80.46875 79.6875 
L 88.671875 71.484375 
L 51.5625 71.484375 
Q 51.171875 62.890625 50 45.3125 
L 78.125 45.3125 
L 84.765625 51.953125 
L 93.75 42.96875 
L 58.59375 42.96875 
L 58.59375 3.90625 
Q 58.984375 -1.171875 65.234375 -0.78125 
L 81.25 -0.78125 
Q 85.9375 -0.390625 86.71875 3.703125 
Q 87.5 7.8125 87.890625 18.75 
L 89.84375 18.75 
Q 89.453125 1.171875 95.703125 1.171875 
Q 92.578125 -6.25 82.03125 -5.46875 
L 61.328125 -5.46875 
Q 53.125 -5.46875 53.125 1.171875 
L 53.125 42.96875 
L 49.609375 42.96875 
Q 46.875 23.4375 37.5 11.125 
Q 28.125 -1.171875 5.078125 -9.765625 
L 4.6875 -8.203125 
Q 24.21875 1.171875 32.609375 13.078125 
Q 41.015625 25 43.75 42.96875 
L 17.96875 42.96875 
Q 12.890625 42.96875 8.59375 41.796875 
L 5.078125 45.3125 
z
" id="SimSun-65e0"/>
       <path d="M 49.609375 54.6875 
L 49.609375 39.84375 
L 76.953125 39.84375 
L 76.953125 54.6875 
z
M 42.96875 -1.953125 
Q 44.53125 0.390625 44.53125 3.515625 
Q 44.53125 72.265625 44.140625 77.734375 
L 49.609375 74.21875 
L 76.5625 74.21875 
L 79.6875 78.515625 
L 85.9375 73.046875 
L 82.421875 70.703125 
Q 82.421875 46.484375 82.8125 36.71875 
L 76.953125 33.984375 
L 76.953125 37.5 
L 59.765625 37.5 
Q 61.71875 28.515625 67.1875 18.75 
Q 77.34375 26.171875 83.984375 34.765625 
L 90.234375 27.734375 
Q 84.765625 27.734375 68.359375 16.796875 
Q 75.390625 7.8125 83 4.484375 
Q 90.625 1.171875 94.53125 0.78125 
L 94.53125 -0.78125 
Q 89.0625 -1.171875 86.328125 -6.25 
Q 76.953125 -1.5625 68.546875 8.984375 
Q 60.15625 19.53125 57.421875 37.5 
L 49.609375 37.5 
L 49.609375 1.953125 
L 64.453125 8.984375 
L 65.234375 7.8125 
Q 52.734375 0 48.046875 -8.203125 
z
M 23.828125 48.046875 
L 30.078125 72.265625 
L 16.40625 72.265625 
L 16.40625 11.328125 
Q 16.40625 0.78125 16.796875 -7.421875 
L 10.9375 -9.765625 
Q 11.328125 0 11.328125 35.34375 
Q 11.328125 70.703125 10.9375 77.734375 
L 16.796875 74.609375 
L 30.078125 74.609375 
L 33.59375 78.125 
L 38.671875 73.046875 
L 35.546875 71.09375 
L 25.78125 48.046875 
Q 31.25 42.1875 34.171875 37.296875 
Q 37.109375 32.421875 37.6875 26.5625 
Q 38.28125 20.703125 35.9375 16.59375 
Q 33.59375 12.5 26.171875 10.546875 
Q 26.5625 15.234375 17.96875 18.75 
L 17.96875 20.3125 
Q 23.828125 19.140625 26.171875 19.140625 
Q 30.078125 19.140625 31.25 20.890625 
Q 32.421875 22.65625 32.421875 25.78125 
Q 32.421875 28.515625 31.640625 33.203125 
Q 30.859375 37.890625 23.828125 48.046875 
z
M 49.609375 71.875 
L 49.609375 57.03125 
L 76.953125 57.03125 
L 76.953125 71.875 
z
" id="SimSun-9650"/>
       <path d="M 65.625 13.28125 
Q 66.015625 21.484375 66.015625 38.46875 
Q 66.015625 55.46875 65.625 66.796875 
L 73.828125 62.890625 
L 70.703125 60.546875 
L 70.703125 24.609375 
Q 70.703125 21.875 71.09375 16.40625 
L 65.625 13.28125 
z
M 83.59375 69.53125 
Q 83.59375 75.78125 83.203125 81.640625 
L 91.40625 77.734375 
L 88.671875 75 
L 88.671875 1.953125 
Q 89.0625 -6.25 81.25 -9.765625 
Q 80.46875 -3.515625 68.359375 -1.5625 
L 68.359375 0 
Q 75.78125 -0.390625 79.6875 -0.390625 
Q 83.59375 -0.390625 83.59375 3.515625 
z
M 30.078125 60.9375 
L 30.078125 66.796875 
Q 30.078125 76.171875 29.6875 81.25 
L 37.890625 77.734375 
L 34.765625 75 
L 34.765625 60.9375 
L 43.75 60.9375 
L 48.046875 65.625 
L 55.078125 58.59375 
L 34.765625 58.59375 
L 34.765625 46.875 
L 48.828125 46.875 
L 53.515625 51.5625 
L 60.546875 44.53125 
L 34.765625 44.53125 
L 34.765625 33.984375 
L 47.65625 33.984375 
L 50.390625 37.890625 
L 56.25 33.59375 
L 53.125 30.859375 
L 53.125 11.71875 
Q 53.515625 4.6875 45.703125 1.953125 
Q 46.484375 6.25 37.5 8.984375 
L 37.5 10.546875 
Q 43.359375 9.765625 45.890625 9.765625 
Q 48.4375 9.765625 48.4375 13.671875 
L 48.4375 31.640625 
L 34.765625 31.640625 
L 34.765625 4.6875 
Q 34.765625 -1.953125 35.15625 -7.03125 
L 29.6875 -9.765625 
Q 30.078125 3.515625 30.078125 7.421875 
L 30.078125 31.640625 
L 16.40625 31.640625 
L 16.40625 3.90625 
L 11.328125 1.171875 
Q 11.71875 11.328125 11.71875 20.3125 
Q 11.71875 29.296875 11.328125 37.109375 
L 16.796875 33.984375 
L 30.078125 33.984375 
L 30.078125 44.53125 
L 17.1875 44.53125 
Q 12.109375 44.53125 7.8125 43.359375 
L 4.296875 46.875 
L 30.078125 46.875 
L 30.078125 58.59375 
L 16.015625 58.59375 
Q 12.109375 51.953125 8.203125 47.65625 
L 7.03125 48.046875 
Q 10.9375 56.25 12.890625 62.5 
Q 14.84375 68.75 15.234375 73.046875 
L 22.65625 69.140625 
Q 19.921875 67.96875 16.796875 60.9375 
z
" id="SimSun-5236"/>
      </defs>
      <g transform="translate(56.442602 314.8)scale(0.14 -0.14)">
       <use xlink:href="#SimSun-65e0"/>
       <use x="100" xlink:href="#SimSun-9650"/>
       <use x="200" xlink:href="#SimSun-5236"/>
      </g>
     </g>
    </g>
    <g id="xtick_2">
     <g id="line2d_2">
      <g>
       <use style="stroke:#000000;stroke-width:0.8;" x="160.817877" xlink:href="#m96d3b991e1" y="296.807813"/>
      </g>
     </g>
     <g id="text_2">
      <!-- Nova-docker -->
      <defs>
       <path d="M 39.453125 17.1875 
L 40.234375 17.1875 
L 40.234375 62.890625 
Q 40.234375 64.453125 39.453125 65.234375 
Q 38.671875 66.015625 36.71875 66.015625 
L 33.59375 66.015625 
L 33.59375 68.359375 
L 49.21875 68.359375 
L 49.21875 66.015625 
L 46.09375 66.015625 
Q 44.53125 66.015625 43.546875 65.234375 
Q 42.578125 64.453125 42.578125 62.890625 
L 42.578125 1.5625 
L 40.234375 1.5625 
L 10.546875 59.765625 
L 9.765625 59.765625 
L 9.765625 7.03125 
Q 9.765625 5.46875 10.734375 4.6875 
Q 11.71875 3.90625 13.28125 3.90625 
L 16.40625 3.90625 
L 16.40625 1.5625 
L 0.78125 1.5625 
L 0.78125 3.90625 
L 3.90625 3.90625 
Q 5.859375 3.90625 6.640625 4.6875 
Q 7.421875 5.46875 7.421875 7.03125 
L 7.421875 62.890625 
Q 7.421875 64.453125 6.640625 65.234375 
Q 5.859375 66.015625 3.90625 66.015625 
L 1.5625 66.015625 
L 1.5625 68.359375 
L 12.890625 68.359375 
z
" id="SimSun-4e"/>
       <path d="M 45.3125 23.4375 
Q 45.3125 13.671875 39.453125 7.21875 
Q 33.59375 0.78125 25 0.78125 
Q 16.015625 0.78125 10.34375 7.421875 
Q 4.6875 14.0625 4.6875 23.4375 
Q 4.6875 32.03125 10.34375 39.0625 
Q 16.015625 46.09375 25 46.09375 
Q 34.375 46.09375 39.84375 39.0625 
Q 45.3125 32.03125 45.3125 23.4375 
z
M 10.9375 23.046875 
Q 10.9375 12.890625 15.03125 8 
Q 19.140625 3.125 25 3.125 
Q 31.640625 3.125 35.34375 8.390625 
Q 39.0625 13.671875 39.0625 23.046875 
Q 39.0625 33.203125 34.953125 38.46875 
Q 30.859375 43.75 25 43.75 
Q 19.53125 43.75 15.234375 38.46875 
Q 10.9375 33.203125 10.9375 23.046875 
z
" id="SimSun-6f"/>
       <path d="M 25.390625 1.171875 
L 23.046875 1.171875 
L 9.765625 39.453125 
Q 9.375 41.015625 8.203125 41.984375 
Q 7.03125 42.96875 5.46875 42.96875 
L 3.515625 42.96875 
L 3.515625 45.3125 
L 20.3125 45.3125 
L 20.3125 42.96875 
L 18.75 42.96875 
Q 16.40625 42.96875 16.015625 42.1875 
Q 15.625 41.40625 15.625 40.625 
Q 15.625 39.0625 16.015625 37.890625 
L 25.390625 10.546875 
L 26.171875 10.546875 
L 35.546875 37.5 
Q 36.328125 39.453125 36.328125 40.234375 
Q 36.328125 40.625 35.546875 41.796875 
Q 34.765625 42.96875 32.421875 42.96875 
L 31.640625 42.96875 
L 31.640625 45.3125 
L 45.703125 45.3125 
L 45.703125 42.96875 
L 44.921875 42.96875 
Q 42.578125 42.96875 41.203125 41.59375 
Q 39.84375 40.234375 38.671875 37.5 
z
M 40.625 42.96875 
z
M 37.5 42.96875 
z
M 14.453125 42.96875 
z
M 8.59375 42.96875 
z
" id="SimSun-76"/>
       <path d="M 19.140625 1.171875 
Q 12.109375 1.171875 8.203125 4.484375 
Q 4.296875 7.8125 4.296875 12.109375 
Q 4.296875 19.140625 10.34375 23.625 
Q 16.40625 28.125 34.375 30.078125 
L 34.375 34.765625 
Q 34.375 38.671875 32.609375 41.203125 
Q 30.859375 43.75 24.609375 43.75 
Q 17.96875 43.75 15.234375 41.59375 
Q 12.5 39.453125 13.28125 37.109375 
Q 13.671875 36.328125 13.671875 35.546875 
Q 13.671875 34.765625 13.078125 33.59375 
Q 12.5 32.421875 10.15625 32.421875 
Q 8.59375 32.421875 7.609375 33.390625 
Q 6.640625 34.375 6.640625 36.328125 
Q 6.640625 39.84375 11.71875 42.96875 
Q 16.796875 46.09375 24.21875 46.09375 
Q 32.03125 46.09375 35.9375 43.15625 
Q 39.84375 40.234375 39.84375 34.765625 
L 39.84375 8.984375 
Q 39.84375 5.859375 40.421875 5.265625 
Q 41.015625 4.6875 42.578125 4.6875 
Q 44.53125 4.6875 45.3125 6.4375 
Q 46.09375 8.203125 46.09375 11.328125 
L 48.046875 11.328125 
Q 48.046875 5.859375 46.09375 3.703125 
Q 44.140625 1.5625 41.015625 1.5625 
Q 38.28125 1.5625 36.71875 2.734375 
Q 35.15625 3.90625 34.375 6.640625 
Q 30.46875 3.90625 27.140625 2.53125 
Q 23.828125 1.171875 19.140625 1.171875 
z
M 10.9375 13.28125 
Q 10.9375 9.765625 13.078125 6.828125 
Q 15.234375 3.90625 19.921875 3.90625 
Q 23.4375 3.90625 26.953125 5.265625 
Q 30.46875 6.640625 34.375 9.375 
L 34.375 27.734375 
Q 21.09375 26.171875 16.015625 22.453125 
Q 10.9375 18.75 10.9375 13.28125 
z
" id="SimSun-61"/>
       <path d="M 3.125 34.765625 
L 3.125 38.28125 
L 46.484375 38.28125 
L 46.484375 34.765625 
z
" id="SimSun-2d"/>
       <path d="M 35.9375 36.71875 
Q 33.984375 39.84375 30.859375 41.203125 
Q 27.734375 42.578125 24.609375 42.578125 
Q 18.75 42.578125 15.421875 37.109375 
Q 12.109375 31.640625 12.109375 22.65625 
Q 12.109375 13.28125 15.234375 8.78125 
Q 18.359375 4.296875 24.21875 4.296875 
Q 28.515625 4.296875 31.4375 7.03125 
Q 34.375 9.765625 35.9375 15.234375 
z
M 23.046875 1.171875 
Q 16.015625 1.171875 10.9375 6.828125 
Q 5.859375 12.5 5.859375 23.4375 
Q 5.859375 33.59375 11.328125 39.640625 
Q 16.796875 45.703125 24.21875 45.703125 
Q 27.34375 45.703125 30.65625 44.328125 
Q 33.984375 42.96875 35.9375 40.234375 
L 35.9375 61.328125 
Q 35.9375 63.671875 35.15625 64.84375 
Q 34.375 66.015625 32.421875 66.015625 
L 29.296875 66.015625 
L 29.296875 68.359375 
L 33.59375 68.359375 
Q 35.546875 68.359375 37.5 69.140625 
Q 39.453125 69.921875 41.40625 71.484375 
L 41.40625 9.765625 
Q 41.40625 7.8125 42.1875 7.03125 
Q 42.96875 6.25 44.53125 6.25 
L 47.265625 6.25 
L 47.265625 3.90625 
L 44.921875 3.90625 
Q 43.359375 3.90625 41.203125 3.3125 
Q 39.0625 2.734375 36.71875 1.5625 
L 35.9375 1.5625 
L 35.9375 8.984375 
Q 33.984375 5.46875 30.65625 3.3125 
Q 27.34375 1.171875 23.046875 1.171875 
z
" id="SimSun-64"/>
       <path d="M 33.59375 34.765625 
Q 33.59375 35.9375 33.984375 36.328125 
Q 33.984375 36.71875 34.375 37.890625 
Q 34.765625 39.453125 32.8125 41.59375 
Q 30.859375 43.75 26.171875 43.75 
Q 20.3125 43.75 16.203125 38.078125 
Q 12.109375 32.421875 12.109375 23.046875 
Q 12.109375 14.453125 15.625 9.171875 
Q 19.140625 3.90625 27.34375 3.90625 
Q 32.8125 3.90625 36.515625 7.421875 
Q 40.234375 10.9375 41.796875 15.625 
L 43.75 14.84375 
Q 42.1875 8.984375 37.890625 4.875 
Q 33.59375 0.78125 26.171875 0.78125 
Q 16.796875 0.78125 11.328125 6.640625 
Q 5.859375 12.5 5.859375 23.4375 
Q 5.859375 33.203125 11.71875 39.640625 
Q 17.578125 46.09375 26.953125 46.09375 
Q 33.59375 46.09375 37.296875 42.578125 
Q 41.015625 39.0625 41.015625 35.546875 
Q 41.015625 33.203125 40.03125 32.21875 
Q 39.0625 31.25 37.109375 31.25 
Q 35.546875 31.25 34.5625 32.21875 
Q 33.59375 33.203125 33.59375 34.765625 
z
" id="SimSun-63"/>
       <path d="M 26.171875 29.6875 
L 41.015625 6.640625 
Q 42.1875 5.078125 43.15625 4.484375 
Q 44.140625 3.90625 45.3125 3.90625 
L 46.875 3.90625 
L 46.875 1.5625 
L 30.859375 1.5625 
L 30.859375 3.90625 
L 32.03125 3.90625 
Q 33.984375 3.90625 34.765625 4.484375 
Q 35.546875 5.078125 34.375 6.640625 
L 22.265625 25.78125 
L 14.453125 17.578125 
L 14.453125 7.03125 
Q 14.453125 5.46875 15.421875 4.6875 
Q 16.40625 3.90625 17.96875 3.90625 
L 19.921875 3.90625 
L 19.921875 1.5625 
L 3.515625 1.5625 
L 3.515625 3.90625 
L 5.46875 3.90625 
Q 7.421875 3.90625 8.203125 4.6875 
Q 8.984375 5.46875 8.984375 7.03125 
L 8.984375 62.890625 
Q 8.984375 64.453125 8.203125 65.234375 
Q 7.421875 66.015625 5.46875 66.015625 
L 3.125 66.015625 
L 3.125 68.359375 
L 6.640625 68.359375 
Q 8.984375 68.359375 10.734375 69.140625 
Q 12.5 69.921875 13.671875 71.484375 
L 14.453125 71.484375 
L 14.453125 21.875 
L 30.859375 39.453125 
Q 31.640625 41.015625 31.4375 41.984375 
Q 31.25 42.96875 29.6875 42.96875 
L 27.34375 42.96875 
L 27.34375 45.3125 
L 43.75 45.3125 
L 43.75 42.96875 
L 41.796875 42.96875 
Q 40.625 42.96875 38.859375 42.375 
Q 37.109375 41.796875 35.546875 40.234375 
z
M 38.28125 42.96875 
z
M 33.984375 42.96875 
z
M 35.9375 3.90625 
z
M 42.96875 3.90625 
z
" id="SimSun-6b"/>
       <path d="M 37.5 25.78125 
Q 37.890625 34.375 34.5625 38.859375 
Q 31.25 43.359375 25.78125 43.359375 
Q 19.921875 43.359375 16.203125 38.671875 
Q 12.5 33.984375 12.5 25.78125 
z
M 12.5 23.4375 
Q 12.5 12.890625 16.59375 8.390625 
Q 20.703125 3.90625 27.34375 3.90625 
Q 32.421875 3.90625 35.9375 6.828125 
Q 39.453125 9.765625 41.015625 14.0625 
L 42.96875 13.28125 
Q 41.796875 8.984375 37.6875 4.875 
Q 33.59375 0.78125 26.5625 0.78125 
Q 17.578125 0.78125 11.90625 6.640625 
Q 6.25 12.5 6.25 23.4375 
Q 6.25 33.203125 11.90625 39.640625 
Q 17.578125 46.09375 25.78125 46.09375 
Q 33.203125 46.09375 38.671875 41.015625 
Q 44.140625 35.9375 44.140625 23.4375 
z
" id="SimSun-65"/>
       <path d="M 19.921875 33.203125 
Q 23.828125 39.453125 28.3125 42.765625 
Q 32.8125 46.09375 37.5 46.09375 
Q 41.40625 46.09375 43.546875 44.328125 
Q 45.703125 42.578125 45.703125 40.234375 
Q 45.703125 38.28125 44.71875 37.109375 
Q 43.75 35.9375 41.796875 35.9375 
Q 39.84375 35.9375 38.859375 37.109375 
Q 37.890625 38.28125 38.28125 40.234375 
Q 38.28125 41.40625 37.890625 42.1875 
Q 37.5 42.96875 35.546875 42.96875 
Q 32.421875 42.96875 27.921875 39.0625 
Q 23.4375 35.15625 19.921875 28.125 
L 19.921875 7.03125 
Q 19.921875 5.46875 20.890625 4.6875 
Q 21.875 3.90625 23.4375 3.90625 
L 32.03125 3.90625 
L 32.03125 1.5625 
L 3.125 1.5625 
L 3.125 3.90625 
L 10.9375 3.90625 
Q 12.890625 3.90625 13.671875 4.6875 
Q 14.453125 5.46875 14.453125 7.03125 
L 14.453125 39.453125 
Q 14.453125 41.015625 13.671875 41.984375 
Q 12.890625 42.96875 10.9375 42.96875 
L 3.515625 42.96875 
L 3.515625 45.3125 
L 6.640625 45.3125 
Q 9.375 45.3125 13.078125 45.890625 
Q 16.796875 46.484375 18.75 47.265625 
L 19.921875 47.265625 
z
" id="SimSun-72"/>
      </defs>
      <g transform="translate(122.317877 313.815625)scale(0.14 -0.14)">
       <use xlink:href="#SimSun-4e"/>
       <use x="50" xlink:href="#SimSun-6f"/>
       <use x="100" xlink:href="#SimSun-76"/>
       <use x="150" xlink:href="#SimSun-61"/>
       <use x="200" xlink:href="#SimSun-2d"/>
       <use x="250" xlink:href="#SimSun-64"/>
       <use x="300" xlink:href="#SimSun-6f"/>
       <use x="350" xlink:href="#SimSun-63"/>
       <use x="400" xlink:href="#SimSun-6b"/>
       <use x="450" xlink:href="#SimSun-65"/>
       <use x="500" xlink:href="#SimSun-72"/>
      </g>
     </g>
    </g>
    <g id="xtick_3">
     <g id="line2d_3">
      <g>
       <use style="stroke:#000000;stroke-width:0.8;" x="244.193152" xlink:href="#m96d3b991e1" y="296.807813"/>
      </g>
     </g>
     <g id="text_3">
      <!-- Zun -->
      <defs>
       <path d="M 28.125 3.90625 
Q 33.203125 3.90625 36.90625 7.21875 
Q 40.625 10.546875 42.96875 17.1875 
L 45.3125 16.796875 
L 41.015625 1.5625 
L 3.515625 1.5625 
L 37.890625 66.015625 
L 24.21875 66.015625 
Q 19.140625 66.015625 15.03125 63.078125 
Q 10.9375 60.15625 7.8125 54.296875 
L 5.46875 55.078125 
L 10.15625 68.359375 
L 45.703125 68.359375 
L 11.328125 3.90625 
z
" id="SimSun-5a"/>
       <path d="M 22.65625 5.078125 
Q 27.34375 5.078125 30.65625 7.421875 
Q 33.984375 9.765625 35.546875 14.84375 
L 35.546875 39.453125 
Q 35.546875 41.015625 34.765625 41.984375 
Q 33.984375 42.96875 32.03125 42.96875 
L 29.6875 42.96875 
L 29.6875 45.3125 
L 32.03125 45.3125 
Q 34.375 45.3125 36.328125 45.703125 
Q 38.28125 46.09375 40.234375 47.65625 
L 41.015625 47.65625 
L 41.015625 9.375 
Q 41.015625 7.8125 41.984375 7.03125 
Q 42.96875 6.25 44.53125 6.25 
L 46.875 6.25 
L 46.875 3.90625 
L 44.53125 3.90625 
Q 42.578125 3.90625 40.625 3.3125 
Q 38.671875 2.734375 36.328125 1.5625 
L 35.546875 1.5625 
L 35.546875 9.765625 
Q 33.59375 5.46875 29.6875 3.3125 
Q 25.78125 1.171875 20.703125 1.171875 
Q 14.453125 1.171875 11.328125 4.6875 
Q 8.203125 8.203125 8.203125 16.015625 
L 8.203125 39.453125 
Q 8.203125 41.015625 7.421875 41.984375 
Q 6.640625 42.96875 4.6875 42.96875 
L 2.34375 42.96875 
L 2.34375 45.3125 
L 4.6875 45.3125 
Q 7.03125 45.3125 8.984375 45.703125 
Q 10.9375 46.09375 12.890625 47.65625 
L 13.671875 47.65625 
L 13.671875 15.234375 
Q 13.671875 9.765625 16.015625 7.421875 
Q 18.359375 5.078125 22.65625 5.078125 
z
" id="SimSun-75"/>
       <path d="M 3.125 1.5625 
L 3.125 3.90625 
L 5.078125 3.90625 
Q 7.03125 3.90625 7.8125 4.6875 
Q 8.59375 5.46875 8.59375 7.03125 
L 8.59375 40.625 
Q 8.59375 41.796875 8.203125 42.375 
Q 7.8125 42.96875 6.640625 42.96875 
L 3.515625 42.96875 
L 3.515625 45.3125 
L 6.25 45.3125 
Q 8.203125 45.3125 9.953125 45.703125 
Q 11.71875 46.09375 13.28125 47.265625 
L 14.0625 47.265625 
L 14.0625 38.28125 
Q 17.578125 42.1875 21.09375 44.140625 
Q 24.609375 46.09375 28.515625 46.09375 
Q 35.15625 46.09375 38.28125 42.578125 
Q 41.40625 39.0625 41.40625 32.03125 
L 41.40625 7.03125 
Q 41.40625 5.46875 42.375 4.6875 
Q 43.359375 3.90625 44.921875 3.90625 
L 46.875 3.90625 
L 46.875 1.5625 
L 30.46875 1.5625 
L 30.46875 3.90625 
L 32.421875 3.90625 
Q 34.375 3.90625 35.15625 4.6875 
Q 35.9375 5.46875 35.9375 7.03125 
L 35.9375 33.203125 
Q 35.9375 37.890625 33.984375 40.421875 
Q 32.03125 42.96875 28.125 42.96875 
Q 24.609375 42.96875 20.890625 40.625 
Q 17.1875 38.28125 14.0625 33.984375 
L 14.0625 7.03125 
Q 14.0625 5.46875 15.03125 4.6875 
Q 16.015625 3.90625 17.578125 3.90625 
L 19.53125 3.90625 
L 19.53125 1.5625 
z
" id="SimSun-6e"/>
      </defs>
      <g transform="translate(233.693152 313.815625)scale(0.14 -0.14)">
       <use xlink:href="#SimSun-5a"/>
       <use x="50" xlink:href="#SimSun-75"/>
       <use x="100" xlink:href="#SimSun-6e"/>
      </g>
     </g>
    </g>
    <g id="xtick_4">
     <g id="line2d_4">
      <g>
       <use style="stroke:#000000;stroke-width:0.8;" x="327.568428" xlink:href="#m96d3b991e1" y="296.807813"/>
      </g>
     </g>
     <g id="text_4">
      <!-- Yun -->
      <defs>
       <path d="M 37.109375 61.328125 
Q 37.5 63.671875 36.515625 64.84375 
Q 35.546875 66.015625 32.8125 66.015625 
L 32.03125 66.015625 
L 32.03125 68.359375 
L 47.265625 68.359375 
L 47.265625 66.015625 
L 46.09375 66.015625 
Q 44.140625 66.015625 42.578125 64.640625 
Q 41.015625 63.28125 39.84375 60.546875 
L 27.734375 29.6875 
L 27.734375 7.03125 
Q 27.734375 5.46875 28.703125 4.6875 
Q 29.6875 3.90625 31.25 3.90625 
L 34.765625 3.90625 
L 34.765625 1.5625 
L 14.453125 1.5625 
L 14.453125 3.90625 
L 17.96875 3.90625 
Q 19.921875 3.90625 20.703125 4.6875 
Q 21.484375 5.46875 21.484375 7.03125 
L 21.484375 27.34375 
L 8.203125 61.71875 
Q 7.421875 63.671875 6.25 64.84375 
Q 5.078125 66.015625 3.125 66.015625 
L 2.34375 66.015625 
L 2.34375 68.359375 
L 19.53125 68.359375 
L 19.53125 66.015625 
L 17.1875 66.015625 
Q 14.84375 66.015625 14.453125 64.84375 
Q 14.0625 63.671875 14.84375 61.328125 
L 25.390625 32.421875 
L 26.171875 32.421875 
z
M 42.1875 66.015625 
z
M 39.0625 66.015625 
z
M 13.28125 66.015625 
z
M 6.640625 66.015625 
z
" id="SimSun-59"/>
      </defs>
      <g transform="translate(317.068428 313.815625)scale(0.14 -0.14)">
       <use xlink:href="#SimSun-59"/>
       <use x="50" xlink:href="#SimSun-75"/>
       <use x="100" xlink:href="#SimSun-6e"/>
      </g>
     </g>
    </g>
   </g>
   <g id="matplotlib.axis_2">
    <g id="ytick_1">
     <g id="line2d_5">
      <defs>
       <path d="M 0 0 
L -3.5 0 
" id="m7c544f2472" style="stroke:#000000;stroke-width:0.8;"/>
      </defs>
      <g>
       <use style="stroke:#000000;stroke-width:0.8;" x="46.59375" xlink:href="#m7c544f2472" y="296.807813"/>
      </g>
     </g>
     <g id="text_5">
      <!-- 0 -->
      <defs>
       <path d="M 31.78125 66.40625 
Q 24.171875 66.40625 20.328125 58.90625 
Q 16.5 51.421875 16.5 36.375 
Q 16.5 21.390625 20.328125 13.890625 
Q 24.171875 6.390625 31.78125 6.390625 
Q 39.453125 6.390625 43.28125 13.890625 
Q 47.125 21.390625 47.125 36.375 
Q 47.125 51.421875 43.28125 58.90625 
Q 39.453125 66.40625 31.78125 66.40625 
z
M 31.78125 74.21875 
Q 44.046875 74.21875 50.515625 64.515625 
Q 56.984375 54.828125 56.984375 36.375 
Q 56.984375 17.96875 50.515625 8.265625 
Q 44.046875 -1.421875 31.78125 -1.421875 
Q 19.53125 -1.421875 13.0625 8.265625 
Q 6.59375 17.96875 6.59375 36.375 
Q 6.59375 54.828125 13.0625 64.515625 
Q 19.53125 74.21875 31.78125 74.21875 
z
" id="DejaVuSans-30"/>
      </defs>
      <g transform="translate(33.23125 300.607031)scale(0.1 -0.1)">
       <use xlink:href="#DejaVuSans-30"/>
      </g>
     </g>
    </g>
    <g id="ytick_2">
     <g id="line2d_6">
      <g>
       <use style="stroke:#000000;stroke-width:0.8;" x="46.59375" xlink:href="#m7c544f2472" y="263.807813"/>
      </g>
     </g>
     <g id="text_6">
      <!-- 100 -->
      <defs>
       <path d="M 12.40625 8.296875 
L 28.515625 8.296875 
L 28.515625 63.921875 
L 10.984375 60.40625 
L 10.984375 69.390625 
L 28.421875 72.90625 
L 38.28125 72.90625 
L 38.28125 8.296875 
L 54.390625 8.296875 
L 54.390625 0 
L 12.40625 0 
z
" id="DejaVuSans-31"/>
      </defs>
      <g transform="translate(20.50625 267.607031)scale(0.1 -0.1)">
       <use xlink:href="#DejaVuSans-31"/>
       <use x="63.623047" xlink:href="#DejaVuSans-30"/>
       <use x="127.246094" xlink:href="#DejaVuSans-30"/>
      </g>
     </g>
    </g>
    <g id="ytick_3">
     <g id="line2d_7">
      <g>
       <use style="stroke:#000000;stroke-width:0.8;" x="46.59375" xlink:href="#m7c544f2472" y="230.807813"/>
      </g>
     </g>
     <g id="text_7">
      <!-- 200 -->
      <defs>
       <path d="M 19.1875 8.296875 
L 53.609375 8.296875 
L 53.609375 0 
L 7.328125 0 
L 7.328125 8.296875 
Q 12.9375 14.109375 22.625 23.890625 
Q 32.328125 33.6875 34.8125 36.53125 
Q 39.546875 41.84375 41.421875 45.53125 
Q 43.3125 49.21875 43.3125 52.78125 
Q 43.3125 58.59375 39.234375 62.25 
Q 35.15625 65.921875 28.609375 65.921875 
Q 23.96875 65.921875 18.8125 64.3125 
Q 13.671875 62.703125 7.8125 59.421875 
L 7.8125 69.390625 
Q 13.765625 71.78125 18.9375 73 
Q 24.125 74.21875 28.421875 74.21875 
Q 39.75 74.21875 46.484375 68.546875 
Q 53.21875 62.890625 53.21875 53.421875 
Q 53.21875 48.921875 51.53125 44.890625 
Q 49.859375 40.875 45.40625 35.40625 
Q 44.1875 33.984375 37.640625 27.21875 
Q 31.109375 20.453125 19.1875 8.296875 
z
" id="DejaVuSans-32"/>
      </defs>
      <g transform="translate(20.50625 234.607031)scale(0.1 -0.1)">
       <use xlink:href="#DejaVuSans-32"/>
       <use x="63.623047" xlink:href="#DejaVuSans-30"/>
       <use x="127.246094" xlink:href="#DejaVuSans-30"/>
      </g>
     </g>
    </g>
    <g id="ytick_4">
     <g id="line2d_8">
      <g>
       <use style="stroke:#000000;stroke-width:0.8;" x="46.59375" xlink:href="#m7c544f2472" y="197.807813"/>
      </g>
     </g>
     <g id="text_8">
      <!-- 300 -->
      <defs>
       <path d="M 40.578125 39.3125 
Q 47.65625 37.796875 51.625 33 
Q 55.609375 28.21875 55.609375 21.1875 
Q 55.609375 10.40625 48.1875 4.484375 
Q 40.765625 -1.421875 27.09375 -1.421875 
Q 22.515625 -1.421875 17.65625 -0.515625 
Q 12.796875 0.390625 7.625 2.203125 
L 7.625 11.71875 
Q 11.71875 9.328125 16.59375 8.109375 
Q 21.484375 6.890625 26.8125 6.890625 
Q 36.078125 6.890625 40.9375 10.546875 
Q 45.796875 14.203125 45.796875 21.1875 
Q 45.796875 27.640625 41.28125 31.265625 
Q 36.765625 34.90625 28.71875 34.90625 
L 20.21875 34.90625 
L 20.21875 43.015625 
L 29.109375 43.015625 
Q 36.375 43.015625 40.234375 45.921875 
Q 44.09375 48.828125 44.09375 54.296875 
Q 44.09375 59.90625 40.109375 62.90625 
Q 36.140625 65.921875 28.71875 65.921875 
Q 24.65625 65.921875 20.015625 65.03125 
Q 15.375 64.15625 9.8125 62.3125 
L 9.8125 71.09375 
Q 15.4375 72.65625 20.34375 73.4375 
Q 25.25 74.21875 29.59375 74.21875 
Q 40.828125 74.21875 47.359375 69.109375 
Q 53.90625 64.015625 53.90625 55.328125 
Q 53.90625 49.265625 50.4375 45.09375 
Q 46.96875 40.921875 40.578125 39.3125 
z
" id="DejaVuSans-33"/>
      </defs>
      <g transform="translate(20.50625 201.607031)scale(0.1 -0.1)">
       <use xlink:href="#DejaVuSans-33"/>
       <use x="63.623047" xlink:href="#DejaVuSans-30"/>
       <use x="127.246094" xlink:href="#DejaVuSans-30"/>
      </g>
     </g>
    </g>
    <g id="ytick_5">
     <g id="line2d_9">
      <g>
       <use style="stroke:#000000;stroke-width:0.8;" x="46.59375" xlink:href="#m7c544f2472" y="164.807813"/>
      </g>
     </g>
     <g id="text_9">
      <!-- 400 -->
      <defs>
       <path d="M 37.796875 64.3125 
L 12.890625 25.390625 
L 37.796875 25.390625 
z
M 35.203125 72.90625 
L 47.609375 72.90625 
L 47.609375 25.390625 
L 58.015625 25.390625 
L 58.015625 17.1875 
L 47.609375 17.1875 
L 47.609375 0 
L 37.796875 0 
L 37.796875 17.1875 
L 4.890625 17.1875 
L 4.890625 26.703125 
z
" id="DejaVuSans-34"/>
      </defs>
      <g transform="translate(20.50625 168.607031)scale(0.1 -0.1)">
       <use xlink:href="#DejaVuSans-34"/>
       <use x="63.623047" xlink:href="#DejaVuSans-30"/>
       <use x="127.246094" xlink:href="#DejaVuSans-30"/>
      </g>
     </g>
    </g>
    <g id="ytick_6">
     <g id="line2d_10">
      <g>
       <use style="stroke:#000000;stroke-width:0.8;" x="46.59375" xlink:href="#m7c544f2472" y="131.807813"/>
      </g>
     </g>
     <g id="text_10">
      <!-- 500 -->
      <defs>
       <path d="M 10.796875 72.90625 
L 49.515625 72.90625 
L 49.515625 64.59375 
L 19.828125 64.59375 
L 19.828125 46.734375 
Q 21.96875 47.46875 24.109375 47.828125 
Q 26.265625 48.1875 28.421875 48.1875 
Q 40.625 48.1875 47.75 41.5 
Q 54.890625 34.8125 54.890625 23.390625 
Q 54.890625 11.625 47.5625 5.09375 
Q 40.234375 -1.421875 26.90625 -1.421875 
Q 22.3125 -1.421875 17.546875 -0.640625 
Q 12.796875 0.140625 7.71875 1.703125 
L 7.71875 11.625 
Q 12.109375 9.234375 16.796875 8.0625 
Q 21.484375 6.890625 26.703125 6.890625 
Q 35.15625 6.890625 40.078125 11.328125 
Q 45.015625 15.765625 45.015625 23.390625 
Q 45.015625 31 40.078125 35.4375 
Q 35.15625 39.890625 26.703125 39.890625 
Q 22.75 39.890625 18.8125 39.015625 
Q 14.890625 38.140625 10.796875 36.28125 
z
" id="DejaVuSans-35"/>
      </defs>
      <g transform="translate(20.50625 135.607031)scale(0.1 -0.1)">
       <use xlink:href="#DejaVuSans-35"/>
       <use x="63.623047" xlink:href="#DejaVuSans-30"/>
       <use x="127.246094" xlink:href="#DejaVuSans-30"/>
      </g>
     </g>
    </g>
    <g id="ytick_7">
     <g id="line2d_11">
      <g>
       <use style="stroke:#000000;stroke-width:0.8;" x="46.59375" xlink:href="#m7c544f2472" y="98.807813"/>
      </g>
     </g>
     <g id="text_11">
      <!-- 600 -->
      <defs>
       <path d="M 33.015625 40.375 
Q 26.375 40.375 22.484375 35.828125 
Q 18.609375 31.296875 18.609375 23.390625 
Q 18.609375 15.53125 22.484375 10.953125 
Q 26.375 6.390625 33.015625 6.390625 
Q 39.65625 6.390625 43.53125 10.953125 
Q 47.40625 15.53125 47.40625 23.390625 
Q 47.40625 31.296875 43.53125 35.828125 
Q 39.65625 40.375 33.015625 40.375 
z
M 52.59375 71.296875 
L 52.59375 62.3125 
Q 48.875 64.0625 45.09375 64.984375 
Q 41.3125 65.921875 37.59375 65.921875 
Q 27.828125 65.921875 22.671875 59.328125 
Q 17.53125 52.734375 16.796875 39.40625 
Q 19.671875 43.65625 24.015625 45.921875 
Q 28.375 48.1875 33.59375 48.1875 
Q 44.578125 48.1875 50.953125 41.515625 
Q 57.328125 34.859375 57.328125 23.390625 
Q 57.328125 12.15625 50.6875 5.359375 
Q 44.046875 -1.421875 33.015625 -1.421875 
Q 20.359375 -1.421875 13.671875 8.265625 
Q 6.984375 17.96875 6.984375 36.375 
Q 6.984375 53.65625 15.1875 63.9375 
Q 23.390625 74.21875 37.203125 74.21875 
Q 40.921875 74.21875 44.703125 73.484375 
Q 48.484375 72.75 52.59375 71.296875 
z
" id="DejaVuSans-36"/>
      </defs>
      <g transform="translate(20.50625 102.607031)scale(0.1 -0.1)">
       <use xlink:href="#DejaVuSans-36"/>
       <use x="63.623047" xlink:href="#DejaVuSans-30"/>
       <use x="127.246094" xlink:href="#DejaVuSans-30"/>
      </g>
     </g>
    </g>
    <g id="ytick_8">
     <g id="line2d_12">
      <g>
       <use style="stroke:#000000;stroke-width:0.8;" x="46.59375" xlink:href="#m7c544f2472" y="65.807813"/>
      </g>
     </g>
     <g id="text_12">
      <!-- 700 -->
      <defs>
       <path d="M 8.203125 72.90625 
L 55.078125 72.90625 
L 55.078125 68.703125 
L 28.609375 0 
L 18.3125 0 
L 43.21875 64.59375 
L 8.203125 64.59375 
z
" id="DejaVuSans-37"/>
      </defs>
      <g transform="translate(20.50625 69.607031)scale(0.1 -0.1)">
       <use xlink:href="#DejaVuSans-37"/>
       <use x="63.623047" xlink:href="#DejaVuSans-30"/>
       <use x="127.246094" xlink:href="#DejaVuSans-30"/>
      </g>
     </g>
    </g>
    <g id="ytick_9">
     <g id="line2d_13">
      <g>
       <use style="stroke:#000000;stroke-width:0.8;" x="46.59375" xlink:href="#m7c544f2472" y="32.807813"/>
      </g>
     </g>
     <g id="text_13">
      <!-- 800 -->
      <defs>
       <path d="M 31.78125 34.625 
Q 24.75 34.625 20.71875 30.859375 
Q 16.703125 27.09375 16.703125 20.515625 
Q 16.703125 13.921875 20.71875 10.15625 
Q 24.75 6.390625 31.78125 6.390625 
Q 38.8125 6.390625 42.859375 10.171875 
Q 46.921875 13.96875 46.921875 20.515625 
Q 46.921875 27.09375 42.890625 30.859375 
Q 38.875 34.625 31.78125 34.625 
z
M 21.921875 38.8125 
Q 15.578125 40.375 12.03125 44.71875 
Q 8.5 49.078125 8.5 55.328125 
Q 8.5 64.0625 14.71875 69.140625 
Q 20.953125 74.21875 31.78125 74.21875 
Q 42.671875 74.21875 48.875 69.140625 
Q 55.078125 64.0625 55.078125 55.328125 
Q 55.078125 49.078125 51.53125 44.71875 
Q 48 40.375 41.703125 38.8125 
Q 48.828125 37.15625 52.796875 32.3125 
Q 56.78125 27.484375 56.78125 20.515625 
Q 56.78125 9.90625 50.3125 4.234375 
Q 43.84375 -1.421875 31.78125 -1.421875 
Q 19.734375 -1.421875 13.25 4.234375 
Q 6.78125 9.90625 6.78125 20.515625 
Q 6.78125 27.484375 10.78125 32.3125 
Q 14.796875 37.15625 21.921875 38.8125 
z
M 18.3125 54.390625 
Q 18.3125 48.734375 21.84375 45.5625 
Q 25.390625 42.390625 31.78125 42.390625 
Q 38.140625 42.390625 41.71875 45.5625 
Q 45.3125 48.734375 45.3125 54.390625 
Q 45.3125 60.0625 41.71875 63.234375 
Q 38.140625 66.40625 31.78125 66.40625 
Q 25.390625 66.40625 21.84375 63.234375 
Q 18.3125 60.0625 18.3125 54.390625 
z
" id="DejaVuSans-38"/>
      </defs>
      <g transform="translate(20.50625 36.607031)scale(0.1 -0.1)">
       <use xlink:href="#DejaVuSans-38"/>
       <use x="63.623047" xlink:href="#DejaVuSans-30"/>
       <use x="127.246094" xlink:href="#DejaVuSans-30"/>
      </g>
     </g>
    </g>
    <g id="text_14">
     <!-- CPU利用率（%） -->
     <defs>
      <path d="M 26.953125 0.78125 
Q 16.015625 0.78125 9.5625 8.984375 
Q 3.125 17.1875 3.125 34.765625 
Q 3.125 49.609375 9.953125 59.375 
Q 16.796875 69.140625 28.515625 69.140625 
Q 31.25 69.140625 33.984375 68.359375 
Q 36.71875 67.1875 38.671875 67.1875 
Q 40.234375 67.1875 41.203125 67.578125 
Q 42.1875 67.96875 42.96875 69.140625 
L 46.484375 51.953125 
L 44.140625 51.171875 
Q 41.796875 58.59375 37.890625 62.5 
Q 33.984375 66.40625 27.734375 66.40625 
Q 19.53125 66.40625 15.03125 57.421875 
Q 10.546875 48.4375 10.546875 35.15625 
Q 10.546875 20.703125 14.453125 12.5 
Q 18.359375 4.296875 27.34375 4.296875 
Q 33.59375 4.296875 38.078125 8.78125 
Q 42.578125 13.28125 44.140625 20.703125 
L 46.484375 19.53125 
Q 44.53125 11.328125 39.25 6.046875 
Q 33.984375 0.78125 26.953125 0.78125 
z
" id="SimSun-43"/>
      <path d="M 14.84375 32.8125 
L 14.84375 7.03125 
Q 14.84375 5.46875 15.8125 4.6875 
Q 16.796875 3.90625 18.359375 3.90625 
L 21.09375 3.90625 
L 21.09375 1.5625 
L 2.34375 1.5625 
L 2.34375 3.90625 
L 5.078125 3.90625 
Q 7.03125 3.90625 7.8125 4.6875 
Q 8.59375 5.46875 8.59375 7.03125 
L 8.59375 62.890625 
Q 8.59375 64.453125 7.8125 65.234375 
Q 7.03125 66.015625 5.078125 66.015625 
L 2.734375 66.015625 
L 2.734375 68.359375 
L 25.78125 68.359375 
Q 35.546875 68.359375 40.8125 63.46875 
Q 46.09375 58.59375 46.09375 51.171875 
Q 46.09375 42.1875 40.421875 37.5 
Q 34.765625 32.8125 26.953125 32.8125 
z
M 24.609375 35.15625 
Q 30.46875 35.15625 34.953125 38.671875 
Q 39.453125 42.1875 39.453125 50.78125 
Q 39.453125 58.59375 35.734375 62.296875 
Q 32.03125 66.015625 23.828125 66.015625 
L 18.359375 66.015625 
Q 16.796875 66.015625 15.8125 65.234375 
Q 14.84375 64.453125 14.84375 62.890625 
L 14.84375 35.15625 
z
" id="SimSun-50"/>
      <path d="M 25.390625 3.90625 
Q 31.25 3.90625 35.34375 7.8125 
Q 39.453125 11.71875 39.453125 17.578125 
L 39.453125 62.890625 
Q 39.453125 64.453125 38.671875 65.234375 
Q 37.890625 66.015625 35.9375 66.015625 
L 33.59375 66.015625 
L 33.59375 68.359375 
L 47.65625 68.359375 
L 47.65625 66.015625 
L 45.3125 66.015625 
Q 43.75 66.015625 42.765625 65.234375 
Q 41.796875 64.453125 41.796875 62.890625 
L 41.796875 17.578125 
Q 41.796875 9.765625 36.515625 5.265625 
Q 31.25 0.78125 24.609375 0.78125 
Q 17.578125 0.78125 12.296875 4.6875 
Q 7.03125 8.59375 7.03125 17.1875 
L 7.03125 62.890625 
Q 7.03125 64.453125 6.25 65.234375 
Q 5.46875 66.015625 3.515625 66.015625 
L 1.5625 66.015625 
L 1.5625 68.359375 
L 18.75 68.359375 
L 18.75 66.015625 
L 16.796875 66.015625 
Q 15.234375 66.015625 14.25 65.234375 
Q 13.28125 64.453125 13.28125 62.890625 
L 13.28125 17.1875 
Q 13.28125 9.375 16.59375 6.640625 
Q 19.921875 3.90625 25.390625 3.90625 
z
" id="SimSun-55"/>
      <path d="M 31.25 -8.984375 
Q 31.640625 5.859375 31.640625 10.9375 
L 31.640625 36.328125 
Q 20.3125 18.75 5.46875 7.8125 
L 4.296875 8.984375 
Q 24.609375 29.6875 31.25 49.609375 
L 17.1875 49.609375 
Q 12.109375 49.609375 7.8125 48.4375 
L 4.296875 51.953125 
L 31.640625 51.953125 
L 31.640625 71.09375 
Q 20.703125 69.921875 9.375 69.140625 
L 9.375 70.703125 
Q 24.21875 72.65625 34.375 75.390625 
Q 44.53125 78.125 48.4375 81.640625 
L 55.46875 74.21875 
Q 51.171875 74.21875 37.109375 71.875 
L 37.109375 51.953125 
L 47.65625 51.953125 
L 52.734375 57.03125 
L 60.15625 49.609375 
L 37.109375 49.609375 
L 37.109375 40.234375 
Q 53.90625 33.59375 54.6875 31.046875 
Q 55.46875 28.515625 55.46875 26.953125 
Q 55.46875 25 54.484375 23.4375 
Q 53.515625 21.875 53.125 21.875 
Q 51.953125 21.875 49.609375 25.78125 
Q 46.09375 31.25 37.109375 38.28125 
L 37.109375 6.640625 
Q 37.109375 -1.171875 37.5 -6.25 
z
M 69.140625 61.71875 
L 69.140625 29.296875 
Q 69.140625 22.65625 69.53125 16.796875 
L 63.671875 14.0625 
Q 64.0625 28.125 64.0625 44.140625 
Q 64.0625 60.15625 63.671875 69.140625 
L 72.265625 64.453125 
z
M 83.984375 66.015625 
Q 83.984375 73.828125 83.59375 82.03125 
L 92.578125 78.125 
L 89.453125 75.390625 
L 89.453125 2.734375 
Q 90.234375 -5.859375 80.46875 -8.984375 
Q 80.46875 -1.953125 65.234375 0.78125 
L 65.234375 2.34375 
Q 75.78125 1.5625 79.875 1.359375 
Q 83.984375 1.171875 83.984375 6.640625 
z
" id="SimSun-5229"/>
      <path d="M 53.125 49.21875 
L 53.125 28.515625 
L 79.296875 28.515625 
L 79.296875 49.21875 
z
M 63.671875 1.5625 
Q 73.828125 0.78125 76.5625 0.96875 
Q 79.296875 1.171875 79.296875 6.25 
L 79.296875 26.171875 
L 53.125 26.171875 
Q 53.125 1.171875 53.515625 -3.515625 
L 47.65625 -6.25 
Q 48.046875 16.015625 48.046875 26.171875 
L 22.265625 26.171875 
Q 19.53125 5.46875 5.859375 -9.375 
L 4.6875 -8.59375 
Q 12.109375 3.515625 14.84375 16.015625 
Q 17.578125 28.515625 17.578125 50.390625 
Q 17.578125 72.265625 17.1875 79.296875 
L 23.046875 75.390625 
L 78.90625 75.390625 
L 81.640625 79.6875 
L 87.890625 75 
L 84.765625 71.875 
L 84.765625 3.515625 
Q 85.15625 -6.25 76.171875 -8.984375 
Q 75.390625 -2.34375 63.671875 -0.390625 
z
M 23.046875 73.046875 
L 23.046875 51.5625 
L 48.046875 51.5625 
L 48.046875 73.046875 
z
M 53.125 73.046875 
L 53.125 51.5625 
L 79.296875 51.5625 
L 79.296875 73.046875 
z
M 23.046875 49.21875 
Q 22.65625 32.8125 22.265625 28.515625 
L 48.046875 28.515625 
L 48.046875 49.21875 
z
" id="SimSun-7528"/>
      <path d="M 13.671875 58.203125 
L 14.453125 59.375 
Q 21.484375 57.03125 24.21875 55.078125 
Q 26.953125 53.125 26.953125 50.78125 
Q 26.953125 49.609375 25.96875 47.265625 
Q 25 44.921875 24.21875 44.921875 
Q 23.4375 44.921875 22.265625 47.65625 
Q 19.921875 51.953125 13.671875 58.203125 
z
M 8.59375 28.90625 
Q 13.671875 30.078125 31.25 40.234375 
L 32.03125 39.0625 
Q 26.171875 34.765625 20.890625 30.265625 
Q 15.625 25.78125 13.671875 22.265625 
z
M 81.25 53.90625 
Q 75 49.21875 66.796875 43.75 
L 66.015625 44.921875 
Q 74.609375 53.125 78.90625 61.328125 
L 85.15625 55.078125 
z
M 67.578125 39.0625 
L 67.96875 40.234375 
Q 81.640625 36.71875 83.984375 34.5625 
Q 86.328125 32.421875 86.328125 29.6875 
Q 86.328125 27.734375 85.734375 25.96875 
Q 85.15625 24.21875 84.375 24.21875 
Q 83.203125 24.21875 81.25 28.125 
Q 77.734375 33.59375 67.578125 39.0625 
z
M 49.21875 60.9375 
Q 39.0625 51.5625 35.9375 49.21875 
Q 43.75 49.21875 53.125 49.609375 
Q 57.8125 54.6875 60.15625 59.765625 
L 66.40625 53.90625 
Q 63.28125 53.125 53.90625 44.140625 
Q 44.53125 35.15625 38.671875 30.46875 
Q 49.21875 30.859375 60.15625 31.25 
Q 58.59375 33.984375 55.46875 38.28125 
L 56.25 39.0625 
Q 63.28125 35.15625 65.625 32.8125 
Q 67.96875 30.46875 67.96875 28.90625 
Q 67.96875 27.734375 66.40625 25.390625 
Q 64.84375 23.046875 64.0625 23.046875 
Q 63.671875 23.046875 63.28125 24.21875 
Q 62.5 26.5625 60.9375 29.6875 
Q 57.03125 29.296875 48.046875 28.125 
L 54.6875 24.21875 
L 51.953125 22.265625 
L 51.953125 15.234375 
L 83.203125 15.234375 
L 88.28125 20.3125 
L 95.3125 12.890625 
L 51.953125 12.890625 
Q 51.953125 -4.296875 52.34375 -8.203125 
L 46.484375 -10.15625 
Q 46.875 0 46.875 12.890625 
L 17.578125 12.890625 
Q 12.5 12.890625 8.203125 11.71875 
L 4.6875 15.234375 
L 46.875 15.234375 
L 46.875 27.734375 
Q 38.28125 26.5625 34.375 23.828125 
L 30.46875 30.46875 
Q 35.546875 30.46875 41.796875 36.71875 
Q 48.046875 42.96875 51.953125 47.65625 
Q 37.5 46.09375 33.59375 43.359375 
L 30.46875 49.609375 
Q 33.59375 49.21875 38.671875 55.859375 
Q 43.75 62.5 45.3125 66.015625 
L 22.65625 66.015625 
Q 17.578125 66.015625 13.28125 64.84375 
L 9.765625 68.359375 
L 48.4375 68.359375 
Q 47.65625 75 41.796875 81.25 
L 42.578125 82.03125 
Q 50.390625 78.90625 52.140625 76.75 
Q 53.90625 74.609375 53.90625 73.4375 
Q 53.90625 71.09375 50.78125 68.359375 
L 78.515625 68.359375 
L 83.59375 73.046875 
L 90.234375 66.015625 
L 47.65625 66.015625 
L 52.734375 61.71875 
z
" id="SimSun-7387"/>
      <path d="M 73.4375 7.8125 
Q 85.546875 -1.5625 84.765625 -2.34375 
Q 83.984375 -3.125 77.34375 1.359375 
Q 70.703125 5.859375 64.640625 13.28125 
Q 58.59375 20.703125 57.609375 32.8125 
Q 56.640625 44.921875 62.5 54.484375 
Q 68.359375 64.0625 76.359375 69.71875 
Q 84.375 75.390625 84.5625 74.40625 
Q 84.765625 73.4375 79.296875 69.140625 
Q 73.828125 64.453125 68.546875 56.25 
Q 63.28125 48.046875 63.28125 35.15625 
Q 63.28125 22.265625 68.359375 15.03125 
Q 73.4375 7.8125 85.546875 -1.5625 
z
" id="SimSun-ff08"/>
      <path d="M 11.71875 66.40625 
Q 9.375 66.40625 7.8125 63.28125 
Q 6.25 60.15625 6.25 51.5625 
Q 6.25 41.796875 8 38.859375 
Q 9.765625 35.9375 11.71875 35.9375 
Q 14.453125 35.9375 15.8125 39.453125 
Q 17.1875 42.96875 17.1875 51.5625 
Q 17.1875 58.59375 16.203125 62.5 
Q 15.234375 66.40625 11.71875 66.40625 
z
M 22.265625 51.171875 
Q 22.265625 44.140625 19.921875 38.859375 
Q 17.578125 33.59375 11.71875 33.59375 
Q 7.03125 33.59375 4.09375 38.28125 
Q 1.171875 42.96875 1.171875 51.171875 
Q 1.171875 59.765625 4.296875 64.453125 
Q 7.421875 69.140625 11.71875 69.140625 
Q 16.40625 69.140625 19.328125 64.25 
Q 22.265625 59.375 22.265625 51.171875 
z
M 42.578125 18.75 
Q 42.578125 25.390625 41.40625 29.6875 
Q 40.234375 33.984375 37.109375 33.984375 
Q 34.765625 33.984375 33.203125 30.265625 
Q 31.640625 26.5625 31.640625 18.75 
Q 31.640625 8.984375 33.390625 6.25 
Q 35.15625 3.515625 37.109375 3.515625 
Q 39.84375 3.515625 41.203125 6.828125 
Q 42.578125 10.15625 42.578125 18.75 
z
M 47.65625 18.359375 
Q 47.65625 10.546875 44.921875 5.65625 
Q 42.1875 0.78125 37.109375 0.78125 
Q 32.8125 0.78125 29.6875 5.65625 
Q 26.5625 10.546875 26.5625 18.359375 
Q 26.5625 26.953125 29.6875 31.828125 
Q 32.8125 36.71875 37.109375 36.71875 
Q 41.796875 36.71875 44.71875 31.640625 
Q 47.65625 26.5625 47.65625 18.359375 
z
M 39.453125 67.96875 
L 11.328125 0.78125 
L 8.984375 1.953125 
L 36.71875 69.140625 
z
" id="SimSun-25"/>
      <path d="M 42.96875 21.875 
Q 30.078125 5.46875 22.453125 0.96875 
Q 14.84375 -3.515625 14.640625 -2.53125 
Q 14.453125 -1.5625 20.3125 2.734375 
Q 25.78125 6.640625 31.828125 15.8125 
Q 37.890625 25 37.109375 37.109375 
Q 36.328125 49.21875 31.046875 57.21875 
Q 25.78125 65.234375 20.3125 69.921875 
Q 14.453125 74.609375 14.640625 75.578125 
Q 14.84375 76.5625 22.0625 71.671875 
Q 29.296875 66.796875 36.328125 57.21875 
Q 43.359375 47.65625 43.15625 34.765625 
Q 42.96875 21.875 30.078125 5.46875 
z
" id="SimSun-ff09"/>
     </defs>
     <g transform="translate(14.701563 207.207813)rotate(-90)scale(0.14 -0.14)">
      <use xlink:href="#SimSun-43"/>
      <use x="50" xlink:href="#SimSun-50"/>
      <use x="100" xlink:href="#SimSun-55"/>
      <use x="150" xlink:href="#SimSun-5229"/>
      <use x="250" xlink:href="#SimSun-7528"/>
      <use x="350" xlink:href="#SimSun-7387"/>
      <use x="450" xlink:href="#SimSun-ff08"/>
      <use x="550" xlink:href="#SimSun-25"/>
      <use x="600" xlink:href="#SimSun-ff09"/>
     </g>
    </g>
   </g>
   <g id="patch_7">
    <path d="M 46.59375 296.807813 
L 46.59375 19.607813 
" style="fill:none;stroke:#000000;stroke-linecap:square;stroke-linejoin:miter;stroke-width:0.8;"/>
   </g>
   <g id="patch_8">
    <path d="M 358.417279 296.807813 
L 358.417279 19.607813 
" style="fill:none;stroke:#000000;stroke-linecap:square;stroke-linejoin:miter;stroke-width:0.8;"/>
   </g>
   <g id="patch_9">
    <path d="M 46.59375 296.807813 
L 358.417279 296.807813 
" style="fill:none;stroke:#000000;stroke-linecap:square;stroke-linejoin:miter;stroke-width:0.8;"/>
   </g>
   <g id="patch_10">
    <path d="M 46.59375 19.607813 
L 358.417279 19.607813 
" style="fill:none;stroke:#000000;stroke-linecap:square;stroke-linejoin:miter;stroke-width:0.8;"/>
   </g>
   <g id="text_15">
    <!-- 800 -->
    <g transform="translate(67.898852 30.398125)scale(0.1 -0.1)">
     <use xlink:href="#DejaVuSans-38"/>
     <use x="63.623047" xlink:href="#DejaVuSans-30"/>
     <use x="127.246094" xlink:href="#DejaVuSans-30"/>
    </g>
   </g>
   <g id="text_16">
    <!-- 800 -->
    <g transform="translate(151.274127 30.398125)scale(0.1 -0.1)">
     <use xlink:href="#DejaVuSans-38"/>
     <use x="63.623047" xlink:href="#DejaVuSans-30"/>
     <use x="127.246094" xlink:href="#DejaVuSans-30"/>
    </g>
   </g>
   <g id="text_17">
    <!-- 100 -->
    <g transform="translate(234.649402 261.398125)scale(0.1 -0.1)">
     <use xlink:href="#DejaVuSans-31"/>
     <use x="63.623047" xlink:href="#DejaVuSans-30"/>
     <use x="127.246094" xlink:href="#DejaVuSans-30"/>
    </g>
   </g>
   <g id="text_18">
    <!-- 100 -->
    <g transform="translate(318.024678 261.398125)scale(0.1 -0.1)">
     <use xlink:href="#DejaVuSans-31"/>
     <use x="63.623047" xlink:href="#DejaVuSans-30"/>
     <use x="127.246094" xlink:href="#DejaVuSans-30"/>
    </g>
   </g>
   <g id="text_19">
    <!-- CPU -->
    <g transform="translate(192.005515 13.607813)scale(0.14 -0.14)">
     <use xlink:href="#SimSun-43"/>
     <use x="50" xlink:href="#SimSun-50"/>
     <use x="100" xlink:href="#SimSun-55"/>
    </g>
   </g>
   <g id="legend_1">
    <g id="patch_11">
     <path d="M 264.417279 82.060938 
L 351.417279 82.060938 
Q 353.417279 82.060938 353.417279 80.060938 
L 353.417279 26.607813 
Q 353.417279 24.607813 351.417279 24.607813 
L 264.417279 24.607813 
Q 262.417279 24.607813 262.417279 26.607813 
L 262.417279 80.060938 
Q 262.417279 82.060938 264.417279 82.060938 
z
" style="fill:#ffffff;opacity:0.8;stroke:#cccccc;stroke-linejoin:miter;"/>
    </g>
    <g id="patch_12">
     <path d="M 266.417279 36.459375 
L 286.417279 36.459375 
L 286.417279 29.459375 
L 266.417279 29.459375 
z
" style="fill:#ffa500;stroke:#000000;stroke-linejoin:miter;"/>
    </g>
    <g id="text_20">
     <!-- 无限制 -->
     <g transform="translate(294.417279 36.459375)scale(0.1 -0.1)">
      <use xlink:href="#SimSun-65e0"/>
      <use x="100" xlink:href="#SimSun-9650"/>
      <use x="200" xlink:href="#SimSun-5236"/>
     </g>
    </g>
    <g id="patch_13">
     <path d="M 266.417279 49.896875 
L 286.417279 49.896875 
L 286.417279 42.896875 
L 266.417279 42.896875 
z
" style="fill:#ff0000;stroke:#000000;stroke-linejoin:miter;"/>
    </g>
    <g id="text_21">
     <!-- Nova-docker -->
     <g transform="translate(294.417279 49.896875)scale(0.1 -0.1)">
      <use xlink:href="#SimSun-4e"/>
      <use x="50" xlink:href="#SimSun-6f"/>
      <use x="100" xlink:href="#SimSun-76"/>
      <use x="150" xlink:href="#SimSun-61"/>
      <use x="200" xlink:href="#SimSun-2d"/>
      <use x="250" xlink:href="#SimSun-64"/>
      <use x="300" xlink:href="#SimSun-6f"/>
      <use x="350" xlink:href="#SimSun-63"/>
      <use x="400" xlink:href="#SimSun-6b"/>
      <use x="450" xlink:href="#SimSun-65"/>
      <use x="500" xlink:href="#SimSun-72"/>
     </g>
    </g>
    <g id="patch_14">
     <path d="M 266.417279 63.334375 
L 286.417279 63.334375 
L 286.417279 56.334375 
L 266.417279 56.334375 
z
" style="fill:#008000;stroke:#000000;stroke-linejoin:miter;"/>
    </g>
    <g id="text_22">
     <!-- Zun -->
     <g transform="translate(294.417279 63.334375)scale(0.1 -0.1)">
      <use xlink:href="#SimSun-5a"/>
      <use x="50" xlink:href="#SimSun-75"/>
      <use x="100" xlink:href="#SimSun-6e"/>
     </g>
    </g>
    <g id="patch_15">
     <path d="M 266.417279 76.771875 
L 286.417279 76.771875 
L 286.417279 69.771875 
L 266.417279 69.771875 
z
" style="fill:#0000ff;stroke:#000000;stroke-linejoin:miter;"/>
    </g>
    <g id="text_23">
     <!-- Yun -->
     <g transform="translate(294.417279 76.771875)scale(0.1 -0.1)">
      <use xlink:href="#SimSun-59"/>
      <use x="50" xlink:href="#SimSun-75"/>
      <use x="100" xlink:href="#SimSun-6e"/>
     </g>
    </g>
   </g>
  </g>
  <g id="axes_2">
   <g id="patch_16">
    <path d="M 420.781985 296.807813 
L 732.605515 296.807813 
L 732.605515 19.607813 
L 420.781985 19.607813 
z
" style="fill:#ffffff;"/>
   </g>
   <g id="patch_17">
    <path clip-path="url(#pe178d6b161)" d="M 434.955782 296.807813 
L 468.305892 296.807813 
L 468.305892 32.807813 
L 434.955782 32.807813 
z
" style="fill:#ffa500;opacity:0.8;stroke:#000000;stroke-linejoin:miter;"/>
   </g>
   <g id="patch_18">
    <path clip-path="url(#pe178d6b161)" d="M 518.331057 296.807813 
L 551.681167 296.807813 
L 551.681167 263.807813 
L 518.331057 263.807813 
z
" style="fill:#ff0000;opacity:0.8;stroke:#000000;stroke-linejoin:miter;"/>
   </g>
   <g id="patch_19">
    <path clip-path="url(#pe178d6b161)" d="M 601.706333 296.807813 
L 635.056443 296.807813 
L 635.056443 263.807813 
L 601.706333 263.807813 
z
" style="fill:#008000;opacity:0.8;stroke:#000000;stroke-linejoin:miter;"/>
   </g>
   <g id="patch_20">
    <path clip-path="url(#pe178d6b161)" d="M 685.081608 296.807813 
L 718.431718 296.807813 
L 718.431718 263.807813 
L 685.081608 263.807813 
z
" style="fill:#0000ff;opacity:0.8;stroke:#000000;stroke-linejoin:miter;"/>
   </g>
   <g id="matplotlib.axis_3">
    <g id="xtick_5">
     <g id="line2d_14">
      <g>
       <use style="stroke:#000000;stroke-width:0.8;" x="451.630837" xlink:href="#m96d3b991e1" y="296.807813"/>
      </g>
     </g>
     <g id="text_24">
      <!-- 无限制 -->
      <g transform="translate(430.630837 314.8)scale(0.14 -0.14)">
       <use xlink:href="#SimSun-65e0"/>
       <use x="100" xlink:href="#SimSun-9650"/>
       <use x="200" xlink:href="#SimSun-5236"/>
      </g>
     </g>
    </g>
    <g id="xtick_6">
     <g id="line2d_15">
      <g>
       <use style="stroke:#000000;stroke-width:0.8;" x="535.006112" xlink:href="#m96d3b991e1" y="296.807813"/>
      </g>
     </g>
     <g id="text_25">
      <!-- Nova-docker -->
      <g transform="translate(496.506112 313.815625)scale(0.14 -0.14)">
       <use xlink:href="#SimSun-4e"/>
       <use x="50" xlink:href="#SimSun-6f"/>
       <use x="100" xlink:href="#SimSun-76"/>
       <use x="150" xlink:href="#SimSun-61"/>
       <use x="200" xlink:href="#SimSun-2d"/>
       <use x="250" xlink:href="#SimSun-64"/>
       <use x="300" xlink:href="#SimSun-6f"/>
       <use x="350" xlink:href="#SimSun-63"/>
       <use x="400" xlink:href="#SimSun-6b"/>
       <use x="450" xlink:href="#SimSun-65"/>
       <use x="500" xlink:href="#SimSun-72"/>
      </g>
     </g>
    </g>
    <g id="xtick_7">
     <g id="line2d_16">
      <g>
       <use style="stroke:#000000;stroke-width:0.8;" x="618.381388" xlink:href="#m96d3b991e1" y="296.807813"/>
      </g>
     </g>
     <g id="text_26">
      <!-- Zun -->
      <g transform="translate(607.881388 313.815625)scale(0.14 -0.14)">
       <use xlink:href="#SimSun-5a"/>
       <use x="50" xlink:href="#SimSun-75"/>
       <use x="100" xlink:href="#SimSun-6e"/>
      </g>
     </g>
    </g>
    <g id="xtick_8">
     <g id="line2d_17">
      <g>
       <use style="stroke:#000000;stroke-width:0.8;" x="701.756663" xlink:href="#m96d3b991e1" y="296.807813"/>
      </g>
     </g>
     <g id="text_27">
      <!-- Yun -->
      <g transform="translate(691.256663 313.815625)scale(0.14 -0.14)">
       <use xlink:href="#SimSun-59"/>
       <use x="50" xlink:href="#SimSun-75"/>
       <use x="100" xlink:href="#SimSun-6e"/>
      </g>
     </g>
    </g>
   </g>
   <g id="matplotlib.axis_4">
    <g id="ytick_10">
     <g id="line2d_18">
      <g>
       <use style="stroke:#000000;stroke-width:0.8;" x="420.781985" xlink:href="#m7c544f2472" y="296.807813"/>
      </g>
     </g>
     <g id="text_28">
      <!-- 0 -->
      <g transform="translate(407.419485 300.607031)scale(0.1 -0.1)">
       <use xlink:href="#DejaVuSans-30"/>
      </g>
     </g>
    </g>
    <g id="ytick_11">
     <g id="line2d_19">
      <g>
       <use style="stroke:#000000;stroke-width:0.8;" x="420.781985" xlink:href="#m7c544f2472" y="263.807813"/>
      </g>
     </g>
     <g id="text_29">
      <!-- 1 -->
      <g transform="translate(407.419485 267.607031)scale(0.1 -0.1)">
       <use xlink:href="#DejaVuSans-31"/>
      </g>
     </g>
    </g>
    <g id="ytick_12">
     <g id="line2d_20">
      <g>
       <use style="stroke:#000000;stroke-width:0.8;" x="420.781985" xlink:href="#m7c544f2472" y="230.807813"/>
      </g>
     </g>
     <g id="text_30">
      <!-- 2 -->
      <g transform="translate(407.419485 234.607031)scale(0.1 -0.1)">
       <use xlink:href="#DejaVuSans-32"/>
      </g>
     </g>
    </g>
    <g id="ytick_13">
     <g id="line2d_21">
      <g>
       <use style="stroke:#000000;stroke-width:0.8;" x="420.781985" xlink:href="#m7c544f2472" y="197.807813"/>
      </g>
     </g>
     <g id="text_31">
      <!-- 3 -->
      <g transform="translate(407.419485 201.607031)scale(0.1 -0.1)">
       <use xlink:href="#DejaVuSans-33"/>
      </g>
     </g>
    </g>
    <g id="ytick_14">
     <g id="line2d_22">
      <g>
       <use style="stroke:#000000;stroke-width:0.8;" x="420.781985" xlink:href="#m7c544f2472" y="164.807813"/>
      </g>
     </g>
     <g id="text_32">
      <!-- 4 -->
      <g transform="translate(407.419485 168.607031)scale(0.1 -0.1)">
       <use xlink:href="#DejaVuSans-34"/>
      </g>
     </g>
    </g>
    <g id="ytick_15">
     <g id="line2d_23">
      <g>
       <use style="stroke:#000000;stroke-width:0.8;" x="420.781985" xlink:href="#m7c544f2472" y="131.807813"/>
      </g>
     </g>
     <g id="text_33">
      <!-- 5 -->
      <g transform="translate(407.419485 135.607031)scale(0.1 -0.1)">
       <use xlink:href="#DejaVuSans-35"/>
      </g>
     </g>
    </g>
    <g id="ytick_16">
     <g id="line2d_24">
      <g>
       <use style="stroke:#000000;stroke-width:0.8;" x="420.781985" xlink:href="#m7c544f2472" y="98.807813"/>
      </g>
     </g>
     <g id="text_34">
      <!-- 6 -->
      <g transform="translate(407.419485 102.607031)scale(0.1 -0.1)">
       <use xlink:href="#DejaVuSans-36"/>
      </g>
     </g>
    </g>
    <g id="ytick_17">
     <g id="line2d_25">
      <g>
       <use style="stroke:#000000;stroke-width:0.8;" x="420.781985" xlink:href="#m7c544f2472" y="65.807813"/>
      </g>
     </g>
     <g id="text_35">
      <!-- 7 -->
      <g transform="translate(407.419485 69.607031)scale(0.1 -0.1)">
       <use xlink:href="#DejaVuSans-37"/>
      </g>
     </g>
    </g>
    <g id="ytick_18">
     <g id="line2d_26">
      <g>
       <use style="stroke:#000000;stroke-width:0.8;" x="420.781985" xlink:href="#m7c544f2472" y="32.807813"/>
      </g>
     </g>
     <g id="text_36">
      <!-- 8 -->
      <g transform="translate(407.419485 36.607031)scale(0.1 -0.1)">
       <use xlink:href="#DejaVuSans-38"/>
      </g>
     </g>
    </g>
    <g id="text_37">
     <!-- 内存大小（GB） -->
     <defs>
      <path d="M 21.875 56.640625 
L 21.875 15.234375 
Q 32.421875 21.09375 39.0625 31.640625 
Q 45.703125 42.1875 46.484375 56.640625 
z
M 16.015625 -10.15625 
Q 16.40625 0 16.40625 6.640625 
L 16.40625 44.53125 
Q 16.40625 57.421875 16.015625 62.890625 
L 21.875 58.984375 
L 46.484375 58.984375 
Q 46.875 69.921875 46.484375 82.03125 
L 56.640625 77.34375 
L 52.734375 74.609375 
Q 52.734375 66.796875 52.34375 58.984375 
L 76.171875 58.984375 
L 79.6875 63.28125 
L 86.328125 58.203125 
L 82.8125 55.46875 
L 82.8125 3.125 
Q 83.203125 -5.859375 73.828125 -9.375 
Q 73.4375 -3.125 59.765625 -0.390625 
L 59.765625 1.171875 
Q 70.3125 0.390625 74.015625 0.390625 
Q 77.734375 0.390625 77.34375 7.421875 
L 77.34375 56.640625 
L 52.34375 56.640625 
Q 51.5625 48.4375 50 42.1875 
Q 70.703125 30.46875 71.28125 27.34375 
Q 71.875 24.21875 71.875 22.265625 
Q 71.875 19.140625 70.703125 17.375 
Q 69.53125 15.625 69.140625 15.625 
Q 67.96875 15.625 66.796875 19.140625 
Q 64.453125 24.21875 59.5625 29.875 
Q 54.6875 35.546875 49.21875 40.234375 
Q 45.3125 30.46875 37.890625 23.625 
Q 30.46875 16.796875 21.875 13.28125 
L 21.875 -7.03125 
z
" id="SimSun-5185"/>
      <path d="M 30.859375 42.578125 
Q 30.859375 3.90625 31.25 -6.25 
L 25 -10.15625 
Q 25.390625 0.390625 25.390625 35.546875 
Q 17.96875 26.171875 4.6875 17.1875 
L 3.515625 18.359375 
Q 16.015625 29.296875 25.390625 42.96875 
Q 25.390625 46.875 25 50 
L 28.90625 48.046875 
Q 33.984375 55.859375 38.671875 66.40625 
L 16.015625 66.40625 
L 10.15625 65.625 
L 7.03125 68.75 
L 39.453125 68.75 
Q 42.578125 76.171875 43.359375 82.03125 
L 52.734375 77.34375 
Q 49.609375 75.78125 48.4375 73.625 
Q 47.265625 71.484375 46.09375 68.75 
L 78.90625 68.75 
L 84.765625 74.609375 
L 92.96875 66.40625 
L 45.3125 66.40625 
Q 39.0625 54.296875 30.859375 42.578125 
z
M 47.65625 0 
Q 55.46875 -0.78125 58.390625 -0.78125 
Q 61.328125 -0.78125 61.328125 3.90625 
L 61.328125 23.046875 
L 44.140625 23.046875 
L 38.28125 22.265625 
L 35.15625 25.390625 
L 61.328125 25.390625 
Q 61.328125 35.546875 60.9375 41.796875 
L 65.234375 39.453125 
L 76.171875 50.78125 
L 48.046875 50.78125 
L 42.578125 50 
L 39.453125 53.125 
L 76.5625 53.125 
L 80.46875 57.03125 
L 87.109375 49.609375 
Q 81.640625 48.828125 76.75 45.5 
Q 71.875 42.1875 66.796875 38.28125 
L 69.921875 36.328125 
L 66.796875 33.984375 
L 66.796875 25.390625 
L 83.203125 25.390625 
L 88.28125 30.46875 
L 95.703125 23.046875 
L 66.796875 23.046875 
L 66.796875 -0.78125 
Q 66.796875 -6.25 58.59375 -9.765625 
Q 58.203125 -5.078125 47.65625 -1.953125 
z
" id="SimSun-5b58"/>
      <path d="M 45.703125 54.296875 
Q 45.703125 75 45.3125 82.03125 
L 54.6875 77.734375 
L 51.5625 74.609375 
L 51.5625 54.296875 
L 80.46875 54.296875 
L 86.71875 60.546875 
L 95.3125 51.953125 
L 51.5625 51.953125 
L 51.5625 48.828125 
Q 55.46875 34.375 65.8125 19.71875 
Q 76.171875 5.078125 94.921875 0 
L 94.921875 -1.5625 
Q 89.0625 -1.953125 86.328125 -6.640625 
Q 73.4375 1.171875 64.0625 14.84375 
Q 54.6875 28.515625 50.78125 43.359375 
Q 47.265625 19.53125 35.9375 8 
Q 24.609375 -3.515625 5.46875 -9.765625 
L 5.078125 -8.203125 
Q 18.75 -2.34375 28.125 6.640625 
Q 37.5 15.625 41.203125 27.34375 
Q 44.921875 39.0625 45.703125 51.953125 
L 14.84375 51.953125 
L 9.375 51.171875 
L 6.25 54.296875 
z
" id="SimSun-5927"/>
      <path d="M 48.046875 61.71875 
Q 48.046875 73.828125 47.65625 80.859375 
L 58.203125 76.171875 
L 53.90625 72.65625 
L 53.90625 3.90625 
Q 53.90625 -5.078125 44.140625 -8.984375 
Q 44.53125 -4.296875 31.640625 0.78125 
L 31.640625 2.734375 
Q 40.234375 1.171875 44.140625 1.171875 
Q 48.046875 1.171875 48.046875 6.640625 
z
M 29.6875 56.25 
L 38.28125 50 
Q 35.15625 48.4375 32.8125 44.140625 
Q 30.078125 39.84375 24.015625 31.4375 
Q 17.96875 23.046875 7.8125 14.0625 
L 6.640625 15.234375 
Q 11.71875 20.703125 16.796875 28.515625 
Q 21.875 36.328125 25.1875 43.9375 
Q 28.515625 51.5625 29.6875 56.25 
z
M 64.84375 54.296875 
Q 79.6875 42.1875 85.15625 36.328125 
Q 90.625 30.46875 91.203125 27.734375 
Q 91.796875 25 91.796875 23.828125 
Q 91.796875 20.3125 90.234375 18.15625 
Q 88.671875 16.015625 87.890625 16.015625 
Q 86.328125 16.015625 85.15625 20.3125 
Q 82.8125 26.5625 77.53125 34.953125 
Q 72.265625 43.359375 63.671875 53.125 
z
" id="SimSun-5c0f"/>
      <path d="M 25.390625 66.40625 
Q 19.53125 66.40625 14.640625 58.390625 
Q 9.765625 50.390625 9.765625 33.984375 
Q 9.765625 23.046875 13.46875 13.28125 
Q 17.1875 3.515625 25.78125 3.515625 
Q 30.078125 3.515625 32.609375 5.265625 
Q 35.15625 7.03125 35.546875 10.546875 
L 35.546875 23.828125 
Q 35.546875 26.171875 34.375 27.34375 
Q 33.203125 28.515625 30.859375 28.515625 
L 28.515625 28.515625 
L 28.515625 30.859375 
L 48.046875 30.859375 
L 48.046875 28.515625 
L 46.09375 28.515625 
Q 44.140625 28.515625 42.96875 27.34375 
Q 41.796875 26.171875 41.796875 24.21875 
L 41.796875 4.6875 
Q 41.015625 5.078125 40.421875 5.265625 
Q 39.84375 5.46875 39.0625 5.46875 
Q 38.28125 5.46875 37.5 5.265625 
Q 36.71875 5.078125 35.9375 4.296875 
Q 33.59375 2.34375 31.046875 1.5625 
Q 28.515625 0.78125 25.390625 0.78125 
Q 13.671875 0.78125 8.203125 11.125 
Q 2.734375 21.484375 2.734375 33.984375 
Q 2.734375 48.4375 9.171875 58.78125 
Q 15.625 69.140625 25.390625 69.140625 
Q 27.734375 69.140625 30.859375 67.96875 
Q 33.984375 66.796875 34.765625 66.796875 
Q 35.9375 66.796875 37.109375 67.375 
Q 38.28125 67.96875 39.0625 69.140625 
L 42.1875 51.5625 
L 39.84375 50.78125 
Q 37.5 58.984375 33.984375 62.6875 
Q 30.46875 66.40625 25.390625 66.40625 
z
" id="SimSun-47"/>
      <path d="M 1.5625 1.5625 
L 1.5625 3.90625 
L 4.6875 3.90625 
Q 6.640625 3.90625 7.421875 4.6875 
Q 8.203125 5.46875 8.203125 7.03125 
L 8.203125 62.890625 
Q 8.203125 64.453125 7.421875 65.234375 
Q 6.640625 66.015625 4.6875 66.015625 
L 2.34375 66.015625 
L 2.34375 68.359375 
L 25 68.359375 
Q 34.375 68.359375 38.859375 64.640625 
Q 43.359375 60.9375 43.359375 53.125 
Q 43.359375 47.65625 41.015625 44.140625 
Q 38.671875 40.625 31.25 37.890625 
Q 40.234375 35.15625 43.359375 30.078125 
Q 46.484375 25 46.484375 18.75 
Q 46.484375 10.9375 41.015625 6.25 
Q 35.546875 1.5625 26.171875 1.5625 
z
M 25 3.90625 
Q 31.640625 3.90625 35.34375 8 
Q 39.0625 12.109375 39.0625 19.53125 
Q 39.0625 28.125 35.15625 32.21875 
Q 31.25 36.328125 23.4375 36.328125 
L 14.453125 36.328125 
L 14.453125 7.03125 
Q 14.453125 5.46875 15.421875 4.6875 
Q 16.40625 3.90625 17.96875 3.90625 
z
M 36.71875 53.125 
Q 36.71875 60.15625 32.8125 63.078125 
Q 28.90625 66.015625 22.65625 66.015625 
L 17.96875 66.015625 
Q 16.40625 66.015625 15.421875 65.234375 
Q 14.453125 64.453125 14.453125 62.890625 
L 14.453125 38.671875 
L 24.609375 38.671875 
Q 28.90625 38.671875 32.8125 42.1875 
Q 36.71875 45.703125 36.71875 53.125 
z
" id="SimSun-42"/>
     </defs>
     <g transform="translate(401.614798 207.207813)rotate(-90)scale(0.14 -0.14)">
      <use xlink:href="#SimSun-5185"/>
      <use x="100" xlink:href="#SimSun-5b58"/>
      <use x="200" xlink:href="#SimSun-5927"/>
      <use x="300" xlink:href="#SimSun-5c0f"/>
      <use x="400" xlink:href="#SimSun-ff08"/>
      <use x="500" xlink:href="#SimSun-47"/>
      <use x="550" xlink:href="#SimSun-42"/>
      <use x="600" xlink:href="#SimSun-ff09"/>
     </g>
    </g>
   </g>
   <g id="patch_21">
    <path d="M 420.781985 296.807813 
L 420.781985 19.607813 
" style="fill:none;stroke:#000000;stroke-linecap:square;stroke-linejoin:miter;stroke-width:0.8;"/>
   </g>
   <g id="patch_22">
    <path d="M 732.605515 296.807813 
L 732.605515 19.607813 
" style="fill:none;stroke:#000000;stroke-linecap:square;stroke-linejoin:miter;stroke-width:0.8;"/>
   </g>
   <g id="patch_23">
    <path d="M 420.781985 296.807813 
L 732.605515 296.807813 
" style="fill:none;stroke:#000000;stroke-linecap:square;stroke-linejoin:miter;stroke-width:0.8;"/>
   </g>
   <g id="patch_24">
    <path d="M 420.781985 19.607813 
L 732.605515 19.607813 
" style="fill:none;stroke:#000000;stroke-linecap:square;stroke-linejoin:miter;stroke-width:0.8;"/>
   </g>
   <g id="text_38">
    <!-- 8 -->
    <g transform="translate(448.449587 30.398125)scale(0.1 -0.1)">
     <use xlink:href="#DejaVuSans-38"/>
    </g>
   </g>
   <g id="text_39">
    <!-- 1 -->
    <g transform="translate(531.824862 261.398125)scale(0.1 -0.1)">
     <use xlink:href="#DejaVuSans-31"/>
    </g>
   </g>
   <g id="text_40">
    <!-- 1 -->
    <g transform="translate(615.200138 261.398125)scale(0.1 -0.1)">
     <use xlink:href="#DejaVuSans-31"/>
    </g>
   </g>
   <g id="text_41">
    <!-- 1 -->
    <g transform="translate(698.575413 261.398125)scale(0.1 -0.1)">
     <use xlink:href="#DejaVuSans-31"/>
    </g>
   </g>
   <g id="text_42">
    <!-- Memory -->
    <defs>
     <path d="M 43.75 7.03125 
Q 43.75 5.46875 44.71875 4.6875 
Q 45.703125 3.90625 47.265625 3.90625 
L 48.828125 3.90625 
L 48.828125 1.5625 
L 32.03125 1.5625 
L 32.03125 3.90625 
L 33.984375 3.90625 
Q 35.9375 3.90625 36.71875 4.6875 
Q 37.5 5.46875 37.5 7.03125 
L 37.5 58.203125 
L 36.71875 58.203125 
L 23.4375 1.5625 
L 21.09375 1.5625 
L 8.984375 57.03125 
L 8.203125 57.03125 
L 8.203125 7.03125 
Q 8.203125 5.46875 9.171875 4.6875 
Q 10.15625 3.90625 11.71875 3.90625 
L 12.890625 3.90625 
L 12.890625 1.5625 
L 1.171875 1.5625 
L 1.171875 3.90625 
L 2.34375 3.90625 
Q 4.296875 3.90625 5.078125 4.6875 
Q 5.859375 5.46875 5.859375 7.03125 
L 5.859375 62.890625 
Q 5.859375 64.453125 5.078125 65.234375 
Q 4.296875 66.015625 2.34375 66.015625 
L 0.78125 66.015625 
L 0.78125 68.359375 
L 12.109375 68.359375 
L 23.4375 16.015625 
L 24.21875 16.015625 
L 36.328125 68.359375 
L 48.828125 68.359375 
L 48.828125 66.015625 
L 47.265625 66.015625 
Q 45.703125 66.015625 44.71875 65.234375 
Q 43.75 64.453125 43.75 62.890625 
z
" id="SimSun-4d"/>
     <path d="M 2.734375 45.3125 
Q 4.6875 45.3125 6.640625 45.703125 
Q 8.59375 46.09375 9.765625 46.875 
L 10.546875 46.875 
L 10.546875 40.234375 
Q 12.5 43.359375 14.84375 44.71875 
Q 17.1875 46.09375 19.921875 46.09375 
Q 23.4375 46.09375 25.390625 44.71875 
Q 27.34375 43.359375 27.734375 40.234375 
Q 29.6875 43.359375 32.21875 44.71875 
Q 34.765625 46.09375 37.5 46.09375 
Q 42.1875 46.09375 43.9375 43.359375 
Q 45.703125 40.625 45.703125 36.328125 
L 45.703125 6.640625 
Q 45.703125 5.078125 46.484375 4.484375 
Q 47.265625 3.90625 48.828125 3.90625 
L 49.609375 3.90625 
L 49.609375 1.5625 
L 36.328125 1.5625 
L 36.328125 3.90625 
L 37.109375 3.90625 
Q 38.671875 3.90625 39.453125 4.484375 
Q 40.234375 5.078125 40.234375 6.640625 
L 40.234375 35.9375 
Q 40.234375 40.234375 39.25 41.59375 
Q 38.28125 42.96875 36.328125 42.96875 
Q 33.59375 42.96875 31.4375 41.015625 
Q 29.296875 39.0625 28.125 35.546875 
L 28.125 6.640625 
Q 28.125 5.078125 28.90625 4.484375 
Q 29.6875 3.90625 31.25 3.90625 
L 32.03125 3.90625 
L 32.03125 1.5625 
L 18.75 1.5625 
L 18.75 3.90625 
L 19.53125 3.90625 
Q 21.09375 3.90625 21.875 4.484375 
Q 22.65625 5.078125 22.65625 6.640625 
L 22.65625 35.9375 
Q 22.65625 39.453125 21.875 41.203125 
Q 21.09375 42.96875 18.75 42.96875 
Q 16.015625 42.96875 13.859375 41.015625 
Q 11.71875 39.0625 10.546875 35.15625 
L 10.546875 6.640625 
Q 10.546875 5.078125 11.328125 4.484375 
Q 12.109375 3.90625 13.671875 3.90625 
L 14.453125 3.90625 
L 14.453125 1.5625 
L 1.171875 1.5625 
L 1.171875 3.90625 
L 1.953125 3.90625 
Q 3.515625 3.90625 4.296875 4.484375 
Q 5.078125 5.078125 5.078125 6.640625 
L 5.078125 40.625 
Q 5.078125 41.796875 4.6875 42.375 
Q 4.296875 42.96875 3.125 42.96875 
L 1.5625 42.96875 
L 1.5625 45.3125 
z
" id="SimSun-6d"/>
     <path d="M 25.78125 12.5 
L 26.5625 12.5 
L 35.15625 38.671875 
Q 35.9375 40.625 34.953125 41.796875 
Q 33.984375 42.96875 32.421875 42.96875 
L 30.078125 42.96875 
L 30.078125 45.3125 
L 46.484375 45.3125 
L 46.484375 42.96875 
L 44.140625 42.96875 
Q 42.578125 42.96875 41.015625 41.796875 
Q 39.453125 40.625 38.671875 38.671875 
L 25.390625 0 
Q 23.4375 -5.859375 20.5 -9.171875 
Q 17.578125 -12.5 12.890625 -12.5 
Q 10.15625 -12.5 8.59375 -11.515625 
Q 7.03125 -10.546875 7.03125 -8.59375 
Q 7.03125 -7.421875 8 -6.25 
Q 8.984375 -5.078125 10.9375 -5.078125 
Q 12.5 -5.078125 14.0625 -6.640625 
Q 15.625 -7.8125 16.40625 -7.8125 
Q 17.578125 -7.8125 18.359375 -7.421875 
Q 19.140625 -7.03125 19.53125 -5.859375 
Q 20.703125 -3.90625 21.875 -0.96875 
Q 23.046875 1.953125 23.828125 5.078125 
L 10.546875 39.453125 
Q 10.15625 41.015625 8.78125 41.984375 
Q 7.421875 42.96875 5.859375 42.96875 
L 4.296875 42.96875 
L 4.296875 45.3125 
L 20.703125 45.3125 
L 20.703125 42.96875 
L 19.140625 42.96875 
Q 17.578125 42.96875 16.796875 41.984375 
Q 16.015625 41.015625 16.40625 39.0625 
z
M 14.84375 42.96875 
z
M 9.375 42.96875 
z
M 40.234375 42.96875 
z
M 36.328125 42.96875 
z
" id="SimSun-79"/>
    </defs>
    <g transform="translate(555.69375 13.607813)scale(0.14 -0.14)">
     <use xlink:href="#SimSun-4d"/>
     <use x="50" xlink:href="#SimSun-65"/>
     <use x="100" xlink:href="#SimSun-6d"/>
     <use x="150" xlink:href="#SimSun-6f"/>
     <use x="200" xlink:href="#SimSun-72"/>
     <use x="250" xlink:href="#SimSun-79"/>
    </g>
   </g>
   <g id="legend_2">
    <g id="patch_25">
     <path d="M 638.605515 82.060938 
L 725.605515 82.060938 
Q 727.605515 82.060938 727.605515 80.060938 
L 727.605515 26.607813 
Q 727.605515 24.607813 725.605515 24.607813 
L 638.605515 24.607813 
Q 636.605515 24.607813 636.605515 26.607813 
L 636.605515 80.060938 
Q 636.605515 82.060938 638.605515 82.060938 
z
" style="fill:#ffffff;opacity:0.8;stroke:#cccccc;stroke-linejoin:miter;"/>
    </g>
    <g id="patch_26">
     <path d="M 640.605515 36.459375 
L 660.605515 36.459375 
L 660.605515 29.459375 
L 640.605515 29.459375 
z
" style="fill:#ffa500;stroke:#000000;stroke-linejoin:miter;"/>
    </g>
    <g id="text_43">
     <!-- 无限制 -->
     <g transform="translate(668.605515 36.459375)scale(0.1 -0.1)">
      <use xlink:href="#SimSun-65e0"/>
      <use x="100" xlink:href="#SimSun-9650"/>
      <use x="200" xlink:href="#SimSun-5236"/>
     </g>
    </g>
    <g id="patch_27">
     <path d="M 640.605515 49.896875 
L 660.605515 49.896875 
L 660.605515 42.896875 
L 640.605515 42.896875 
z
" style="fill:#ff0000;stroke:#000000;stroke-linejoin:miter;"/>
    </g>
    <g id="text_44">
     <!-- Nova-docker -->
     <g transform="translate(668.605515 49.896875)scale(0.1 -0.1)">
      <use xlink:href="#SimSun-4e"/>
      <use x="50" xlink:href="#SimSun-6f"/>
      <use x="100" xlink:href="#SimSun-76"/>
      <use x="150" xlink:href="#SimSun-61"/>
      <use x="200" xlink:href="#SimSun-2d"/>
      <use x="250" xlink:href="#SimSun-64"/>
      <use x="300" xlink:href="#SimSun-6f"/>
      <use x="350" xlink:href="#SimSun-63"/>
      <use x="400" xlink:href="#SimSun-6b"/>
      <use x="450" xlink:href="#SimSun-65"/>
      <use x="500" xlink:href="#SimSun-72"/>
     </g>
    </g>
    <g id="patch_28">
     <path d="M 640.605515 63.334375 
L 660.605515 63.334375 
L 660.605515 56.334375 
L 640.605515 56.334375 
z
" style="fill:#008000;stroke:#000000;stroke-linejoin:miter;"/>
    </g>
    <g id="text_45">
     <!-- Zun -->
     <g transform="translate(668.605515 63.334375)scale(0.1 -0.1)">
      <use xlink:href="#SimSun-5a"/>
      <use x="50" xlink:href="#SimSun-75"/>
      <use x="100" xlink:href="#SimSun-6e"/>
     </g>
    </g>
    <g id="patch_29">
     <path d="M 640.605515 76.771875 
L 660.605515 76.771875 
L 660.605515 69.771875 
L 640.605515 69.771875 
z
" style="fill:#0000ff;stroke:#000000;stroke-linejoin:miter;"/>
    </g>
    <g id="text_46">
     <!-- Yun -->
     <g transform="translate(668.605515 76.771875)scale(0.1 -0.1)">
      <use xlink:href="#SimSun-59"/>
      <use x="50" xlink:href="#SimSun-75"/>
      <use x="100" xlink:href="#SimSun-6e"/>
     </g>
    </g>
   </g>
  </g>
  <g id="axes_3">
   <g id="patch_30">
    <path d="M 794.970221 296.807813 
L 1106.79375 296.807813 
L 1106.79375 19.607813 
L 794.970221 19.607813 
z
" style="fill:#ffffff;"/>
   </g>
   <g id="patch_31">
    <path clip-path="url(#p42706e3ec3)" d="M 809.144017 296.807813 
L 842.494127 296.807813 
L 842.494127 32.807813 
L 809.144017 32.807813 
z
" style="fill:#ffa500;opacity:0.8;stroke:#000000;stroke-linejoin:miter;"/>
   </g>
   <g id="patch_32">
    <path clip-path="url(#p42706e3ec3)" d="M 892.519293 296.807813 
L 925.869403 296.807813 
L 925.869403 32.807813 
L 892.519293 32.807813 
z
" style="fill:#ff0000;opacity:0.8;stroke:#000000;stroke-linejoin:miter;"/>
   </g>
   <g id="patch_33">
    <path clip-path="url(#p42706e3ec3)" d="M 975.894568 296.807813 
L 1009.244678 296.807813 
L 1009.244678 272.519813 
L 975.894568 272.519813 
z
" style="fill:#008000;opacity:0.8;stroke:#000000;stroke-linejoin:miter;"/>
   </g>
   <g id="patch_34">
    <path clip-path="url(#p42706e3ec3)" d="M 1059.269843 296.807813 
L 1092.619953 296.807813 
L 1092.619953 272.519813 
L 1059.269843 272.519813 
z
" style="fill:#0000ff;opacity:0.8;stroke:#000000;stroke-linejoin:miter;"/>
   </g>
   <g id="matplotlib.axis_5">
    <g id="xtick_9">
     <g id="line2d_27">
      <g>
       <use style="stroke:#000000;stroke-width:0.8;" x="825.819072" xlink:href="#m96d3b991e1" y="296.807813"/>
      </g>
     </g>
     <g id="text_47">
      <!-- 无限制 -->
      <g transform="translate(804.819072 314.8)scale(0.14 -0.14)">
       <use xlink:href="#SimSun-65e0"/>
       <use x="100" xlink:href="#SimSun-9650"/>
       <use x="200" xlink:href="#SimSun-5236"/>
      </g>
     </g>
    </g>
    <g id="xtick_10">
     <g id="line2d_28">
      <g>
       <use style="stroke:#000000;stroke-width:0.8;" x="909.194348" xlink:href="#m96d3b991e1" y="296.807813"/>
      </g>
     </g>
     <g id="text_48">
      <!-- Nova-docker -->
      <g transform="translate(870.694348 313.815625)scale(0.14 -0.14)">
       <use xlink:href="#SimSun-4e"/>
       <use x="50" xlink:href="#SimSun-6f"/>
       <use x="100" xlink:href="#SimSun-76"/>
       <use x="150" xlink:href="#SimSun-61"/>
       <use x="200" xlink:href="#SimSun-2d"/>
       <use x="250" xlink:href="#SimSun-64"/>
       <use x="300" xlink:href="#SimSun-6f"/>
       <use x="350" xlink:href="#SimSun-63"/>
       <use x="400" xlink:href="#SimSun-6b"/>
       <use x="450" xlink:href="#SimSun-65"/>
       <use x="500" xlink:href="#SimSun-72"/>
      </g>
     </g>
    </g>
    <g id="xtick_11">
     <g id="line2d_29">
      <g>
       <use style="stroke:#000000;stroke-width:0.8;" x="992.569623" xlink:href="#m96d3b991e1" y="296.807813"/>
      </g>
     </g>
     <g id="text_49">
      <!-- Zun -->
      <g transform="translate(982.069623 313.815625)scale(0.14 -0.14)">
       <use xlink:href="#SimSun-5a"/>
       <use x="50" xlink:href="#SimSun-75"/>
       <use x="100" xlink:href="#SimSun-6e"/>
      </g>
     </g>
    </g>
    <g id="xtick_12">
     <g id="line2d_30">
      <g>
       <use style="stroke:#000000;stroke-width:0.8;" x="1075.944898" xlink:href="#m96d3b991e1" y="296.807813"/>
      </g>
     </g>
     <g id="text_50">
      <!-- Yun -->
      <g transform="translate(1065.444898 313.815625)scale(0.14 -0.14)">
       <use xlink:href="#SimSun-59"/>
       <use x="50" xlink:href="#SimSun-75"/>
       <use x="100" xlink:href="#SimSun-6e"/>
      </g>
     </g>
    </g>
   </g>
   <g id="matplotlib.axis_6">
    <g id="ytick_19">
     <g id="line2d_31">
      <g>
       <use style="stroke:#000000;stroke-width:0.8;" x="794.970221" xlink:href="#m7c544f2472" y="296.807813"/>
      </g>
     </g>
     <g id="text_51">
      <!-- 0 -->
      <g transform="translate(781.607721 300.607031)scale(0.1 -0.1)">
       <use xlink:href="#DejaVuSans-30"/>
      </g>
     </g>
    </g>
    <g id="ytick_20">
     <g id="line2d_32">
      <g>
       <use style="stroke:#000000;stroke-width:0.8;" x="794.970221" xlink:href="#m7c544f2472" y="244.007812"/>
      </g>
     </g>
     <g id="text_52">
      <!-- 10 -->
      <g transform="translate(775.245221 247.807031)scale(0.1 -0.1)">
       <use xlink:href="#DejaVuSans-31"/>
       <use x="63.623047" xlink:href="#DejaVuSans-30"/>
      </g>
     </g>
    </g>
    <g id="ytick_21">
     <g id="line2d_33">
      <g>
       <use style="stroke:#000000;stroke-width:0.8;" x="794.970221" xlink:href="#m7c544f2472" y="191.207812"/>
      </g>
     </g>
     <g id="text_53">
      <!-- 20 -->
      <g transform="translate(775.245221 195.007031)scale(0.1 -0.1)">
       <use xlink:href="#DejaVuSans-32"/>
       <use x="63.623047" xlink:href="#DejaVuSans-30"/>
      </g>
     </g>
    </g>
    <g id="ytick_22">
     <g id="line2d_34">
      <g>
       <use style="stroke:#000000;stroke-width:0.8;" x="794.970221" xlink:href="#m7c544f2472" y="138.407813"/>
      </g>
     </g>
     <g id="text_54">
      <!-- 30 -->
      <g transform="translate(775.245221 142.207031)scale(0.1 -0.1)">
       <use xlink:href="#DejaVuSans-33"/>
       <use x="63.623047" xlink:href="#DejaVuSans-30"/>
      </g>
     </g>
    </g>
    <g id="ytick_23">
     <g id="line2d_35">
      <g>
       <use style="stroke:#000000;stroke-width:0.8;" x="794.970221" xlink:href="#m7c544f2472" y="85.607812"/>
      </g>
     </g>
     <g id="text_55">
      <!-- 40 -->
      <g transform="translate(775.245221 89.407031)scale(0.1 -0.1)">
       <use xlink:href="#DejaVuSans-34"/>
       <use x="63.623047" xlink:href="#DejaVuSans-30"/>
      </g>
     </g>
    </g>
    <g id="ytick_24">
     <g id="line2d_36">
      <g>
       <use style="stroke:#000000;stroke-width:0.8;" x="794.970221" xlink:href="#m7c544f2472" y="32.807813"/>
      </g>
     </g>
     <g id="text_56">
      <!-- 50 -->
      <g transform="translate(775.245221 36.607031)scale(0.1 -0.1)">
       <use xlink:href="#DejaVuSans-35"/>
       <use x="63.623047" xlink:href="#DejaVuSans-30"/>
      </g>
     </g>
    </g>
    <g id="text_57">
     <!-- 文件大小（GB） -->
     <defs>
      <path d="M 44.140625 80.46875 
Q 49.609375 76.953125 52.140625 74.015625 
Q 54.6875 71.09375 54.6875 69.140625 
Q 54.6875 67.1875 53.125 65.03125 
Q 51.5625 62.890625 50.390625 62.890625 
Q 49.21875 62.890625 48.4375 66.796875 
Q 47.265625 73.046875 42.96875 79.6875 
z
M 7.03125 60.546875 
L 79.6875 60.546875 
L 85.9375 66.796875 
L 94.53125 58.203125 
L 70.3125 58.203125 
Q 65.234375 32.8125 53.125 16.015625 
Q 68.75 1.953125 94.140625 0 
L 94.140625 -1.5625 
Q 86.71875 -2.734375 85.546875 -7.421875 
Q 61.71875 -0.390625 49.609375 12.890625 
Q 31.25 -3.90625 5.078125 -8.984375 
L 4.6875 -7.8125 
Q 30.078125 -0.390625 46.484375 16.40625 
Q 35.15625 33.203125 30.46875 58.203125 
L 19.921875 58.203125 
Q 14.84375 58.203125 10.546875 57.03125 
z
M 32.8125 58.203125 
Q 38.28125 35.546875 49.609375 20.3125 
Q 59.765625 35.546875 64.0625 58.203125 
z
" id="SimSun-6587"/>
      <path d="M 62.109375 55.46875 
Q 62.109375 70.3125 61.71875 82.03125 
L 71.09375 77.734375 
L 67.578125 75 
L 67.578125 55.46875 
L 79.6875 55.46875 
L 84.375 60.15625 
L 91.40625 53.125 
L 67.578125 53.125 
L 67.578125 30.46875 
L 83.984375 30.46875 
L 88.671875 35.15625 
L 95.703125 28.125 
L 67.578125 28.125 
Q 67.578125 -1.5625 67.96875 -7.421875 
L 61.71875 -10.15625 
Q 62.109375 8.984375 62.109375 28.125 
L 44.921875 28.125 
Q 39.84375 28.125 35.546875 26.953125 
L 32.03125 30.46875 
L 62.109375 30.46875 
L 62.109375 53.125 
L 45.3125 53.125 
Q 40.625 42.1875 34.765625 34.375 
L 33.59375 35.15625 
Q 37.890625 44.140625 40.421875 53.125 
Q 42.96875 62.109375 44.53125 72.65625 
L 52.734375 68.359375 
L 49.609375 66.015625 
Q 48.046875 61.71875 46.09375 55.46875 
z
M 20.3125 -10.15625 
Q 20.703125 1.953125 20.703125 8.59375 
L 20.703125 50 
Q 10.546875 34.765625 4.6875 28.90625 
L 3.515625 30.078125 
Q 6.640625 34.375 10.734375 41.015625 
Q 14.84375 47.65625 19.921875 58.59375 
Q 25 69.53125 28.90625 82.03125 
L 37.109375 76.5625 
L 33.984375 74.21875 
Q 26.5625 60.9375 24.21875 56.640625 
L 29.296875 53.125 
L 26.171875 50.390625 
L 26.171875 9.765625 
Q 26.171875 2.734375 26.5625 -6.640625 
z
" id="SimSun-4ef6"/>
     </defs>
     <g transform="translate(769.440533 207.207813)rotate(-90)scale(0.14 -0.14)">
      <use xlink:href="#SimSun-6587"/>
      <use x="100" xlink:href="#SimSun-4ef6"/>
      <use x="200" xlink:href="#SimSun-5927"/>
      <use x="300" xlink:href="#SimSun-5c0f"/>
      <use x="400" xlink:href="#SimSun-ff08"/>
      <use x="500" xlink:href="#SimSun-47"/>
      <use x="550" xlink:href="#SimSun-42"/>
      <use x="600" xlink:href="#SimSun-ff09"/>
     </g>
    </g>
   </g>
   <g id="patch_35">
    <path d="M 794.970221 296.807813 
L 794.970221 19.607813 
" style="fill:none;stroke:#000000;stroke-linecap:square;stroke-linejoin:miter;stroke-width:0.8;"/>
   </g>
   <g id="patch_36">
    <path d="M 1106.79375 296.807813 
L 1106.79375 19.607813 
" style="fill:none;stroke:#000000;stroke-linecap:square;stroke-linejoin:miter;stroke-width:0.8;"/>
   </g>
   <g id="patch_37">
    <path d="M 794.970221 296.807813 
L 1106.79375 296.807813 
" style="fill:none;stroke:#000000;stroke-linecap:square;stroke-linejoin:miter;stroke-width:0.8;"/>
   </g>
   <g id="patch_38">
    <path d="M 794.970221 19.607813 
L 1106.79375 19.607813 
" style="fill:none;stroke:#000000;stroke-linecap:square;stroke-linejoin:miter;stroke-width:0.8;"/>
   </g>
   <g id="text_58">
    <!-- 50.0 -->
    <defs>
     <path d="M 10.6875 12.40625 
L 21 12.40625 
L 21 0 
L 10.6875 0 
z
" id="DejaVuSans-2e"/>
    </defs>
    <g transform="translate(814.68626 30.398125)scale(0.1 -0.1)">
     <use xlink:href="#DejaVuSans-35"/>
     <use x="63.623047" xlink:href="#DejaVuSans-30"/>
     <use x="127.246094" xlink:href="#DejaVuSans-2e"/>
     <use x="159.033203" xlink:href="#DejaVuSans-30"/>
    </g>
   </g>
   <g id="text_59">
    <!-- 50.0 -->
    <g transform="translate(898.061535 30.398125)scale(0.1 -0.1)">
     <use xlink:href="#DejaVuSans-35"/>
     <use x="63.623047" xlink:href="#DejaVuSans-30"/>
     <use x="127.246094" xlink:href="#DejaVuSans-2e"/>
     <use x="159.033203" xlink:href="#DejaVuSans-30"/>
    </g>
   </g>
   <g id="text_60">
    <!-- 4.6 -->
    <g transform="translate(984.61806 270.110125)scale(0.1 -0.1)">
     <use xlink:href="#DejaVuSans-34"/>
     <use x="63.623047" xlink:href="#DejaVuSans-2e"/>
     <use x="95.410156" xlink:href="#DejaVuSans-36"/>
    </g>
   </g>
   <g id="text_61">
    <!-- 4.6 -->
    <g transform="translate(1067.993336 270.110125)scale(0.1 -0.1)">
     <use xlink:href="#DejaVuSans-34"/>
     <use x="63.623047" xlink:href="#DejaVuSans-2e"/>
     <use x="95.410156" xlink:href="#DejaVuSans-36"/>
    </g>
   </g>
   <g id="text_62">
    <!-- Disk -->
    <defs>
     <path d="M 39.0625 35.546875 
Q 39.0625 52.34375 33.984375 59.171875 
Q 28.90625 66.015625 19.921875 66.015625 
Q 17.1875 66.015625 15.8125 65.234375 
Q 14.453125 64.453125 14.453125 62.890625 
L 14.453125 7.03125 
Q 14.453125 5.46875 15.625 4.6875 
Q 16.796875 3.90625 18.75 3.90625 
Q 27.34375 3.90625 33.203125 10.34375 
Q 39.0625 16.796875 39.0625 35.546875 
z
M 8.203125 62.890625 
Q 8.203125 64.453125 7.421875 65.234375 
Q 6.640625 66.015625 4.6875 66.015625 
L 2.34375 66.015625 
L 2.34375 68.359375 
L 19.921875 68.359375 
Q 32.03125 68.359375 39.25 60.546875 
Q 46.484375 52.734375 46.484375 36.328125 
Q 46.484375 18.359375 39.453125 9.953125 
Q 32.421875 1.5625 18.75 1.5625 
L 1.953125 1.5625 
L 1.953125 3.90625 
L 4.6875 3.90625 
Q 6.640625 3.90625 7.421875 4.6875 
Q 8.203125 5.46875 8.203125 7.03125 
z
" id="SimSun-44"/>
     <path d="M 22.265625 39.453125 
Q 22.265625 41.015625 21.484375 41.984375 
Q 20.703125 42.96875 18.75 42.96875 
L 10.546875 42.96875 
L 10.546875 45.3125 
L 14.453125 45.3125 
Q 17.96875 45.3125 21.09375 45.890625 
Q 24.21875 46.484375 26.953125 48.046875 
L 27.734375 48.046875 
L 27.734375 7.03125 
Q 27.734375 5.46875 28.703125 4.6875 
Q 29.6875 3.90625 31.25 3.90625 
L 39.453125 3.90625 
L 39.453125 1.5625 
L 10.546875 1.5625 
L 10.546875 3.90625 
L 18.75 3.90625 
Q 20.703125 3.90625 21.484375 4.6875 
Q 22.265625 5.46875 22.265625 7.03125 
z
M 26.953125 47.265625 
z
M 25.390625 69.140625 
Q 27.34375 69.140625 28.90625 67.765625 
Q 30.46875 66.40625 30.46875 64.453125 
Q 30.46875 62.5 28.90625 60.9375 
Q 27.34375 59.375 25.390625 59.375 
Q 23.4375 59.375 21.875 60.9375 
Q 20.3125 62.5 20.3125 64.453125 
Q 20.3125 66.40625 21.875 67.765625 
Q 23.4375 69.140625 25.390625 69.140625 
z
" id="SimSun-69"/>
     <path d="M 9.765625 33.984375 
Q 9.765625 39.84375 14.25 42.96875 
Q 18.75 46.09375 25 46.09375 
Q 28.515625 46.09375 31.640625 45.3125 
Q 34.765625 44.140625 35.9375 44.140625 
Q 37.109375 44.140625 37.890625 44.53125 
Q 38.671875 44.921875 39.84375 46.09375 
L 41.40625 33.203125 
L 39.0625 32.8125 
Q 37.5 37.890625 33.78125 40.8125 
Q 30.078125 43.75 25.390625 43.75 
Q 20.3125 43.75 17.375 41.796875 
Q 14.453125 39.84375 14.453125 36.328125 
Q 14.453125 33.203125 15.8125 31.4375 
Q 17.1875 29.6875 20.703125 28.90625 
Q 23.4375 27.734375 27.734375 26.5625 
Q 31.640625 25 35.15625 23.4375 
Q 38.28125 21.875 40.421875 19.328125 
Q 42.578125 16.796875 42.578125 13.671875 
Q 42.578125 7.8125 38.46875 4.484375 
Q 34.375 1.171875 26.5625 1.171875 
Q 21.484375 1.171875 19.140625 2.34375 
Q 16.40625 3.125 14.84375 3.125 
Q 13.671875 3.125 12.296875 2.53125 
Q 10.9375 1.953125 9.375 1.171875 
L 8.203125 15.625 
L 10.546875 16.015625 
Q 11.71875 9.765625 15.625 6.640625 
Q 19.53125 3.515625 26.5625 3.515625 
Q 32.03125 3.515625 34.953125 5.46875 
Q 37.890625 7.421875 37.890625 11.328125 
Q 37.890625 14.0625 36.328125 15.8125 
Q 34.765625 17.578125 33.203125 18.359375 
Q 29.296875 19.921875 24.609375 21.875 
Q 19.921875 23.4375 16.40625 25 
Q 12.890625 26.5625 11.328125 28.90625 
Q 9.765625 31.25 9.765625 33.984375 
z
" id="SimSun-73"/>
    </defs>
    <g transform="translate(936.881985 13.607813)scale(0.14 -0.14)">
     <use xlink:href="#SimSun-44"/>
     <use x="50" xlink:href="#SimSun-69"/>
     <use x="100" xlink:href="#SimSun-73"/>
     <use x="150" xlink:href="#SimSun-6b"/>
    </g>
   </g>
   <g id="legend_3">
    <g id="patch_39">
     <path d="M 1012.79375 82.060938 
L 1099.79375 82.060938 
Q 1101.79375 82.060938 1101.79375 80.060938 
L 1101.79375 26.607813 
Q 1101.79375 24.607813 1099.79375 24.607813 
L 1012.79375 24.607813 
Q 1010.79375 24.607813 1010.79375 26.607813 
L 1010.79375 80.060938 
Q 1010.79375 82.060938 1012.79375 82.060938 
z
" style="fill:#ffffff;opacity:0.8;stroke:#cccccc;stroke-linejoin:miter;"/>
    </g>
    <g id="patch_40">
     <path d="M 1014.79375 36.459375 
L 1034.79375 36.459375 
L 1034.79375 29.459375 
L 1014.79375 29.459375 
z
" style="fill:#ffa500;stroke:#000000;stroke-linejoin:miter;"/>
    </g>
    <g id="text_63">
     <!-- 无限制 -->
     <g transform="translate(1042.79375 36.459375)scale(0.1 -0.1)">
      <use xlink:href="#SimSun-65e0"/>
      <use x="100" xlink:href="#SimSun-9650"/>
      <use x="200" xlink:href="#SimSun-5236"/>
     </g>
    </g>
    <g id="patch_41">
     <path d="M 1014.79375 49.896875 
L 1034.79375 49.896875 
L 1034.79375 42.896875 
L 1014.79375 42.896875 
z
" style="fill:#ff0000;stroke:#000000;stroke-linejoin:miter;"/>
    </g>
    <g id="text_64">
     <!-- Nova-docker -->
     <g transform="translate(1042.79375 49.896875)scale(0.1 -0.1)">
      <use xlink:href="#SimSun-4e"/>
      <use x="50" xlink:href="#SimSun-6f"/>
      <use x="100" xlink:href="#SimSun-76"/>
      <use x="150" xlink:href="#SimSun-61"/>
      <use x="200" xlink:href="#SimSun-2d"/>
      <use x="250" xlink:href="#SimSun-64"/>
      <use x="300" xlink:href="#SimSun-6f"/>
      <use x="350" xlink:href="#SimSun-63"/>
      <use x="400" xlink:href="#SimSun-6b"/>
      <use x="450" xlink:href="#SimSun-65"/>
      <use x="500" xlink:href="#SimSun-72"/>
     </g>
    </g>
    <g id="patch_42">
     <path d="M 1014.79375 63.334375 
L 1034.79375 63.334375 
L 1034.79375 56.334375 
L 1014.79375 56.334375 
z
" style="fill:#008000;stroke:#000000;stroke-linejoin:miter;"/>
    </g>
    <g id="text_65">
     <!-- Zun -->
     <g transform="translate(1042.79375 63.334375)scale(0.1 -0.1)">
      <use xlink:href="#SimSun-5a"/>
      <use x="50" xlink:href="#SimSun-75"/>
      <use x="100" xlink:href="#SimSun-6e"/>
     </g>
    </g>
    <g id="patch_43">
     <path d="M 1014.79375 76.771875 
L 1034.79375 76.771875 
L 1034.79375 69.771875 
L 1014.79375 69.771875 
z
" style="fill:#0000ff;stroke:#000000;stroke-linejoin:miter;"/>
    </g>
    <g id="text_66">
     <!-- Yun -->
     <g transform="translate(1042.79375 76.771875)scale(0.1 -0.1)">
      <use xlink:href="#SimSun-59"/>
      <use x="50" xlink:href="#SimSun-75"/>
      <use x="100" xlink:href="#SimSun-6e"/>
     </g>
    </g>
   </g>
  </g>
 </g>
 <defs>
  <clipPath id="p5255d356c8">
   <rect height="277.2" width="311.823529" x="46.59375" y="19.607813"/>
  </clipPath>
  <clipPath id="pe178d6b161">
   <rect height="277.2" width="311.823529" x="420.781985" y="19.607813"/>
  </clipPath>
  <clipPath id="p42706e3ec3">
   <rect height="277.2" width="311.823529" x="794.970221" y="19.607813"/>
  </clipPath>
 </defs>
</svg>
